<?xml version="1.0" encoding="UTF-8"?>
<svg id="Layer_2" data-name="Layer 2" xmlns="http://www.w3.org/2000/svg" viewBox="0 0 528.08 935.15">
  <defs>
    <style>
      .cls-1 {
        fill: #fff;
      }

      .cls-2 {
        fill: #f5f5f5;
      }

      .cls-3 {
        fill: #4d4d4d;
      }

      .cls-4 {
        fill: #e0d6c3;
      }

      .cls-5 {
        fill: #efeae1;
      }
    </style>
  </defs>
  <g id="Burr">
    <g id="Burr1">
      <g id="Body">
        <path class="cls-5" d="M527.45,791.58l-5.67-58.15-47.34-485.63c-.3-3.11-.52-6.23-.57-9.35-2.06-113.68-95.69-206.03-209.83-206.03h0c-114.15,0-207.77,92.36-209.83,206.03-.06,3.12-.27,6.24-.57,9.35L6.3,733.43l-5.67,58.15c-7.37,75.61,50.96,142.24,126.91,143.54,1.16,.02,2.32,.03,3.48,.03H397.05c1.17,0,2.33,0,3.48-.03,75.96-1.3,134.29-67.93,126.91-143.54Z"/>
        <path class="cls-5" d="M299.52,57.5c7.71-33.72,24.07-42.88,47.97-39.96-3.29-8.18-9.95-11.77-16.22-13.81-29.14-9.52-55.68,1.7-66,5.95-1.4,.58-13.91,7.68-15.25,8-1.95,.46-3.85-.88-5.65-2.06-14.77-9.68-32.06-10.54-47.23-2.35,5.77,2.95,11.64,5.97,16.57,11.31s10.22,23.86,10.48,32.92h75.33Z"/>
        <path class="cls-5" d="M446.32,29.73h0c-24.55-19.4-60.5-15.19-79.9,9.36l-6.89,8.71c-9.79,12.39-7.67,30.54,4.72,40.33l44.2,34.94c12.39,9.79,30.54,7.67,40.33-4.72l6.89-8.71c19.4-24.55,15.19-60.5-9.36-79.9Z"/>
        <path class="cls-5" d="M81.76,29.73h0c24.55-19.4,60.5-15.19,79.9,9.36l6.89,8.71c9.79,12.39,7.67,30.54-4.72,40.33l-44.2,34.94c-12.39,9.79-30.54,7.67-40.33-4.72l-6.89-8.71c-19.4-24.55-15.19-60.5,9.36-79.9Z"/>
      </g>
      <g id="Face">
        <path class="cls-1" d="M263.84,261.51h0c-31.99,0-58.16,26.17-58.16,58.16v44.67c0,4.98,4.07,9.05,9.05,9.05h98.22c4.98,0,9.05-4.07,9.05-9.05v-44.67c0-31.99-26.17-58.16-58.16-58.16Z"/>
        <rect class="cls-1" x="140" y="163.59" width="68.72" height="110.04" rx="34.36" ry="34.36"/>
        <rect class="cls-1" x="322" y="163.59" width="68.72" height="110.04" rx="34.36" ry="34.36"/>
        <rect class="cls-3" x="165.29" y="189.1" width="36.85" height="59.02" rx="18.43" ry="18.43"/>
        <rect class="cls-3" x="328.59" y="189.1" width="36.85" height="59.02" rx="18.43" ry="18.43"/>
        <path class="cls-3" d="M263.84,273.63h0c-19.3,0-35.09,15.79-35.09,35.09v6.85c0,9.74,7.97,17.71,17.71,17.71h34.75c9.74,0,17.71-7.97,17.71-17.71v-6.85c0-19.3-15.79-35.09-35.09-35.09Z"/>
        <path class="cls-2" d="M263.84,409.07h0c26.27,0,47.77-9.41,47.77-35.69h-95.53c0,26.27,21.49,35.69,47.77,35.69Z"/>
        <path class="cls-4" d="M160.04,118.41h0c-18.32,4.28-30.85,18.32-27.84,31.2h0c.77,3.31,3.43,5.85,7.08,7.27,4.94,1.92,11.63,.68,16.02-2.8,2.54-2.01,6.44-4.37,11.82-5.61,5.32-1.23,9.81-.85,12.94-.18,5.5,1.18,12.05-.68,15.64-4.6,.04-.04,.08-.09,.12-.13,2.55-2.85,3.75-6.25,2.99-9.5h0c-3.01-12.88-20.46-19.92-38.78-15.63Z"/>
        <path class="cls-4" d="M370.67,118.41h0c18.32,4.28,30.85,18.32,27.84,31.2h0c-.77,3.31-3.43,5.85-7.08,7.27-4.94,1.92-11.63,.68-16.02-2.8-2.54-2.01-6.44-4.37-11.82-5.61-5.32-1.23-9.81-.85-12.94-.18-5.5,1.18-12.05-.68-15.64-4.6-.04-.04-.08-.09-.12-.13-2.55-2.85-3.75-6.25-2.99-9.5h0c3.01-12.88,20.46-19.92,38.78-15.63Z"/>
        <circle class="cls-1" cx="187.84" cy="204.04" r="7.58"/>
        <circle class="cls-1" cx="342.9" cy="203.6" r="7.58"/>
      </g>
    </g>
  </g>
</svg>