<?xml version="1.0" encoding="UTF-8"?>
<svg id="Layer_2" data-name="Layer 2" xmlns="http://www.w3.org/2000/svg" viewBox="0 0 775.04 1011">
  <defs>
    <style>
      .cls-1 {
        fill: #fff;
      }

      .cls-2 {
        fill: #f5f5f5;
      }

      .cls-3 {
        fill: #4d4d4d;
      }

      .cls-4 {
        fill: #cd2b29;
      }

      .cls-5 {
        fill: #ee2d2b;
      }

      .cls-6 {
        fill: #101111;
      }

      .cls-7 {
        fill: #93d3c6;
      }

      .cls-8 {
        fill: #c09f89;
      }

      .cls-9 {
        fill: #e0d6c3;
      }

      .cls-10 {
        fill: #efeae1;
      }
    </style>
  </defs>
  <g id="Burr">
    <g id="Burr5">
      <path id="Cape_Back" data-name="Cape Back" class="cls-4" d="M758.06,999.63c-11.61,9.6-27.3,13.21-42.3,10.4-87.14-16.3-195-29.72-318.86-30.37-132.17-.69-246.66,13.35-337.8,30.4-9.28,1.74-18.92,1.06-27.73-2.27-6.94-2.62-14.56-7.06-20.81-14.55-9.21-11.04-13.14-25.79-8.8-40.68L160.54,408.13c5.98-20.5,26.18-34.75,49.26-34.75h355.43c23.08,0,43.28,14.25,49.26,34.75l158.77,544.44c5.25,17.99-1.58,35.79-15.21,47.06Z"/>
      <g id="Burr-2" data-name="Burr">
        <g id="Body">
          <path class="cls-10" d="M650.93,791.58l-5.67-58.15-47.34-485.63c-.3-3.11-.52-6.23-.57-9.35-2.06-113.68-95.69-206.03-209.83-206.03h0c-114.15,0-207.77,92.36-209.83,206.03-.06,3.12-.27,6.24-.57,9.35l-47.34,485.63-5.67,58.15c-7.37,75.61,50.96,142.24,126.91,143.54,1.16,.02,2.32,.03,3.48,.03h266.02c1.17,0,2.33,0,3.48-.03,75.96-1.3,134.29-67.93,126.91-143.54Z"/>
          <path class="cls-10" d="M423,57.5c7.71-33.72,24.07-42.88,47.97-39.96-3.29-8.18-9.95-11.77-16.22-13.81-29.14-9.52-55.68,1.7-66,5.95-1.4,.58-13.91,7.68-15.25,8-1.95,.46-3.85-.88-5.65-2.06-14.77-9.68-32.06-10.54-47.23-2.35,5.77,2.95,11.64,5.97,16.57,11.31s10.22,23.86,10.48,32.92h75.33Z"/>
          <path class="cls-10" d="M569.8,29.73h0c-24.55-19.4-60.5-15.19-79.9,9.36l-6.89,8.71c-9.79,12.39-7.67,30.54,4.72,40.33l44.2,34.94c12.39,9.79,30.54,7.67,40.33-4.72l6.89-8.71c19.4-24.55,15.19-60.5-9.36-79.9Z"/>
          <path class="cls-10" d="M205.24,29.73h0c24.55-19.4,60.5-15.19,79.9,9.36l6.89,8.71c9.79,12.39,7.67,30.54-4.72,40.33l-44.2,34.94c-12.39,9.79-30.54,7.67-40.33-4.72l-6.89-8.71c-19.4-24.55-15.19-60.5,9.36-79.9Z"/>
        </g>
        <g id="Face">
          <path class="cls-1" d="M387.32,261.51h0c-31.99,0-58.16,26.17-58.16,58.16v44.67c0,4.98,4.07,9.05,9.05,9.05h98.22c4.98,0,9.05-4.07,9.05-9.05v-44.67c0-31.99-26.17-58.16-58.16-58.16Z"/>
          <rect class="cls-1" x="263.48" y="163.59" width="68.72" height="110.04" rx="34.36" ry="34.36"/>
          <rect class="cls-1" x="445.48" y="163.59" width="68.72" height="110.04" rx="34.36" ry="34.36"/>
          <rect class="cls-3" x="288.77" y="189.1" width="36.85" height="59.02" rx="18.43" ry="18.43"/>
          <rect class="cls-3" x="452.07" y="189.1" width="36.85" height="59.02" rx="18.43" ry="18.43"/>
          <path class="cls-3" d="M387.32,273.63h0c-19.3,0-35.09,15.79-35.09,35.09v6.85c0,9.74,7.97,17.71,17.71,17.71h34.75c9.74,0,17.71-7.97,17.71-17.71v-6.85c0-19.3-15.79-35.09-35.09-35.09Z"/>
          <path class="cls-2" d="M387.32,409.07h0c26.27,0,47.77-9.41,47.77-35.69h-95.53c0,26.27,21.49,35.69,47.77,35.69Z"/>
          <path class="cls-9" d="M283.52,118.41h0c-18.32,4.28-30.85,18.32-27.84,31.2h0c.77,3.31,3.43,5.85,7.08,7.27,4.94,1.92,11.63,.68,16.02-2.8,2.54-2.01,6.44-4.37,11.82-5.61,5.32-1.23,9.81-.85,12.94-.18,5.5,1.18,12.05-.68,15.64-4.6,.04-.04,.08-.09,.12-.13,2.55-2.85,3.75-6.25,2.99-9.5h0c-3.01-12.88-20.46-19.92-38.78-15.63Z"/>
          <path class="cls-9" d="M494.15,118.41h0c18.32,4.28,30.85,18.32,27.84,31.2h0c-.77,3.31-3.43,5.85-7.08,7.27-4.94,1.92-11.63,.68-16.02-2.8-2.54-2.01-6.44-4.37-11.82-5.61-5.32-1.23-9.81-.85-12.94-.18-5.5,1.18-12.05-.68-15.64-4.6-.04-.04-.08-.09-.12-.13-2.55-2.85-3.75-6.25-2.99-9.5h0c3.01-12.88,20.46-19.92,38.78-15.63Z"/>
          <circle class="cls-1" cx="311.32" cy="204.04" r="7.58"/>
          <circle class="cls-1" cx="466.38" cy="203.6" r="7.58"/>
        </g>
      </g>
      <g id="Pants_Belt" data-name="Pants &amp;amp; Belt">
        <path class="cls-8" d="M650.93,791.58l-5.67-58.15H129.78l-5.67,58.15c-7.37,75.61,50.96,142.24,126.91,143.54,1.16,.02,2.32,.03,3.48,.03h266.02c1.17,0,2.33,0,3.48-.03,75.96-1.3,134.29-67.93,126.91-143.54Z"/>
        <g>
          <polygon class="cls-3" points="232.43 733.43 129.78 733.43 125.01 782.36 232.43 782.36 232.43 733.43"/>
          <polygon class="cls-3" points="535.84 782.36 650.03 782.36 645.26 733.43 535.84 733.43 535.84 782.36"/>
          <rect class="cls-3" x="255.38" y="733.43" width="257.52" height="48.93"/>
        </g>
      </g>
      <polygon id="Shirt" class="cls-7" points="154.31 481.74 129.78 733.43 645.26 733.43 620.73 481.74 154.31 481.74"/>
      <g id="Cape_Front" data-name="Cape Front">
        <path class="cls-5" d="M363.02,472.2c-61.12-14.56-139.77-55.61-176.62-77.55-12.18-7.25-26.11-2.62-31.61,10.49l-15.13,36.1c-6,14.32,.44,32.92,13.98,40.14,44.88,23.91,149.89,13.6,213.09,4.23-1.81-3.9-1.85-9.55-3.71-13.42Z"/>
        <path class="cls-5" d="M412.02,472.2c61.12-14.56,139.77-55.61,176.62-77.55,12.18-7.25,26.11-2.62,31.61,10.49l15.13,36.1c6,14.32-.44,32.92-13.98,40.14-44.88,23.91-149.89,13.6-213.09,4.23,1.81-3.9,1.85-9.55,3.71-13.42Z"/>
        <ellipse class="cls-4" cx="384.14" cy="478.18" rx="35.76" ry="34.52"/>
      </g>
      <g id="Glasses">
        <g>
          <path class="cls-6" d="M306.52,175.74l-68.22,113.06c3.47,.7,7.06,1.07,10.74,1.07h9.97l68.86-114.14h-21.36Z"/>
          <path class="cls-6" d="M538.24,176.54l-66.8,110.71c6.23,1.7,12.78,2.62,19.55,2.62h.23l64.56-107c-5.34-3.07-11.25-5.24-17.54-6.33Z"/>
          <path class="cls-6" d="M438.06,175.74c-4.02,0-7.77,1.13-10.97,3.09-10.5,6.44-22.35,10.34-34.67,10.34h-6.77c-12.32,0-24.17-3.9-34.67-10.34-2.53-1.55-5.41-2.57-8.5-2.93l-68.77,113.98h13.38c32.71,0,60.45-21.23,70.23-50.66,4.5-13.55,16.94-22.86,31.21-22.86h1.04c14.28,0,26.71,9.31,31.21,22.86,4.87,14.66,14.2,27.29,26.38,36.26l60.18-99.75h-69.27Z"/>
          <path class="cls-6" d="M597.12,193.19h-28.47c-.88-.96-1.78-1.9-2.73-2.79l-1.7,2.82c-4.44,.28-7.98,3.99-7.98,8.49v4.74l-50.33,83.42h23.12c29.71,0,53.8-24.09,53.8-53.8v-6.54c0-4.55-.58-8.96-1.64-13.18h15.94c4.69,0,8.52-3.83,8.52-8.52v-6.12c0-4.69-3.83-8.52-8.52-8.52Z"/>
          <path class="cls-6" d="M249.04,175.74c-15.7,0-29.83,6.73-39.66,17.46h-31.46c-4.69,0-8.52,3.83-8.52,8.52v6.12c0,4.69,3.83,8.52,8.52,8.52h18.96c-1.06,4.22-1.63,8.63-1.63,13.18v6.54c0,16.35,7.31,30.99,18.82,40.86l61.06-101.2h-26.08Z"/>
        </g>
        <path class="cls-2" d="M275.12,175.74l-61.06,101.2c6.82,5.84,15.1,10.01,24.24,11.87l68.22-113.06h-31.39Z"/>
        <path class="cls-2" d="M340.01,175.74h-12.13l-68.86,114.14h14.69l68.77-113.98c-.81-.09-1.63-.15-2.46-.15Z"/>
        <path class="cls-2" d="M529.02,175.74h-21.7l-60.18,99.75c7.21,5.31,15.42,9.34,24.3,11.77l66.8-110.71c-3-.52-6.07-.8-9.21-.8Z"/>
        <path class="cls-2" d="M555.78,182.87l-64.56,107h14.69l60.02-99.47c-3.06-2.89-6.46-5.42-10.14-7.53Z"/>
      </g>
    </g>
  </g>
</svg>