<svg width="35" height="35" viewBox="0 0 35 35" fill="none" xmlns="http://www.w3.org/2000/svg">
<g id="info-circle">
<g id="vuesax/outline/info-circle">
<g id="info-circle_2">
<path id="Vector" d="M33.6771 17.5C33.6771 8.57595 26.424 1.32293 17.5 1.32293C8.57592 1.32293 1.3229 8.57595 1.3229 17.5C1.3229 26.4241 8.57592 33.6771 17.5 33.6771C26.424 33.6771 33.6771 26.4241 33.6771 17.5ZM30.4896 17.5C30.4896 24.6614 24.6613 30.4896 17.5 30.4896C10.3386 30.4896 4.5104 24.6614 4.5104 17.5C4.5104 10.3387 10.3386 4.51043 17.5 4.51043C24.6613 4.51043 30.4896 10.3387 30.4896 17.5Z" fill="#4D4D4D" stroke="#4D4D4D"/>
<path id="Vector_2" d="M17.5 14.9479C18.0979 14.9479 18.5938 15.4438 18.5938 16.0417V23.3333C18.5938 23.9313 18.0979 24.4271 17.5 24.4271C16.9021 24.4271 16.4062 23.9313 16.4062 23.3333V16.0417C16.4062 15.4438 16.9021 14.9479 17.5 14.9479Z" fill="#4D4D4D"/>
<path id="Vector_3" d="M17.5 10.2083C17.6896 10.2083 17.8791 10.2521 18.0541 10.325C18.2291 10.3979 18.3896 10.5 18.5354 10.6312C18.6666 10.7771 18.7687 10.9229 18.8416 11.1125C18.9146 11.2875 18.9583 11.4771 18.9583 11.6667C18.9583 11.8562 18.9146 12.0458 18.8416 12.2208C18.7687 12.3958 18.6666 12.5562 18.5354 12.7021C18.3896 12.8333 18.2291 12.9354 18.0541 13.0083C17.7041 13.1542 17.2958 13.1542 16.9458 13.0083C16.7708 12.9354 16.6104 12.8333 16.4646 12.7021C16.3333 12.5562 16.2312 12.3958 16.1583 12.2208C16.0854 12.0458 16.0416 11.8562 16.0416 11.6667C16.0416 11.4771 16.0854 11.2875 16.1583 11.1125C16.2312 10.9229 16.3333 10.7771 16.4646 10.6312C16.6104 10.5 16.7708 10.3979 16.9458 10.325C17.1208 10.2521 17.3104 10.2083 17.5 10.2083Z" fill="#4D4D4D"/>
</g>
</g>
</g>
</svg>
