<svg width="35" height="35" viewBox="0 0 35 35" fill="none" xmlns="http://www.w3.org/2000/svg">
<g id="home">
<g id="vuesax/outline/home">
<g id="home_2">
<path id="Vector" d="M15.9062 26.25C15.9062 27.1241 16.6259 27.8438 17.5 27.8438C18.3741 27.8438 19.0938 27.1241 19.0938 26.25V21.875C19.0938 21.0009 18.3741 20.2812 17.5 20.2812C16.6259 20.2812 15.9062 21.0009 15.9062 21.875V26.25Z" fill="#4D4D4D" stroke="#4D4D4D"/>
<path id="Vector_2" d="M3.32766 28.3302L3.32771 28.3306C3.80581 31.1832 6.43625 33.4 9.33334 33.4H25.6667C28.5065 33.4 31.1939 31.1385 31.6721 28.3169L31.6723 28.3157L33.6119 16.7074L33.6124 16.7046C33.775 15.6964 33.6103 14.5751 33.2252 13.5617C32.8401 12.5484 32.2182 11.6 31.4201 10.9566L31.4185 10.9553L21.3123 2.87623C21.3123 2.87619 21.3123 2.87615 21.3122 2.87612C19.1637 1.1574 15.8267 1.13813 13.6868 2.8623C13.6866 2.86246 13.6864 2.86262 13.6862 2.86278L3.58189 10.955C3.58184 10.955 3.58179 10.9551 3.58175 10.9551C2.77637 11.5978 2.14634 12.546 1.7587 13.5609C1.37146 14.5747 1.20965 15.6983 1.38848 16.7097C1.38864 16.7106 1.38879 16.7115 1.38894 16.7123L3.32766 28.3302ZM4.53275 16.1926L4.53259 16.1917C4.46461 15.7895 4.54142 15.245 4.74718 14.7074C4.95284 14.17 5.25947 13.7123 5.57759 13.4566C5.57766 13.4565 5.57772 13.4565 5.57778 13.4564L15.682 5.34974C15.6823 5.3495 15.6826 5.34927 15.6828 5.34903C16.1484 4.97941 16.8056 4.77291 17.4854 4.77291C18.1662 4.77291 18.8375 4.97992 19.3168 5.36335L19.317 5.36346L29.4231 13.4425C29.7306 13.6885 30.0343 14.1469 30.2415 14.6918C30.4481 15.2349 30.5285 15.7842 30.4668 16.1805C30.4667 16.1813 30.4666 16.182 30.4665 16.1828L28.5279 27.785C28.5278 27.7854 28.5278 27.7857 28.5277 27.786C28.3053 29.0927 26.9813 30.2125 25.6667 30.2125H9.33334C8.01764 30.2125 6.69417 29.0915 6.47216 27.7999C6.4721 27.7995 6.47204 27.7992 6.47198 27.7988L4.53275 16.1926Z" fill="#4D4D4D" stroke="#4D4D4D"/>
</g>
</g>
</g>
</svg>
