<svg width="35" height="35" viewBox="0 0 35 35" fill="none" xmlns="http://www.w3.org/2000/svg">
<g id="send-2">
<g id="vuesax/outline/send-2">
<g id="send-2_2">
<path id="Vector" d="M10.2971 7.69268L10.2981 7.69232L22.6787 3.56546C25.8586 2.50049 28.6716 2.76622 30.4519 4.53023C32.235 6.297 32.4989 9.12791 31.4347 12.306L10.2971 7.69268ZM10.2971 7.69268C7.3656 8.67724 5.53718 9.80887 4.43704 10.956C3.32562 12.1149 2.97083 13.277 2.97083 14.2625C2.97083 15.2547 3.32527 16.4173 4.43763 17.5733C5.53821 18.7169 7.36702 19.8411 10.2981 20.8181L13.211 21.789L14.1818 24.7015L10.2971 7.69268ZM11.2987 17.7837L11.2998 17.784L14.9718 19.008C15.4444 19.1597 15.8258 19.541 15.9774 20.0136L17.2014 23.6856L17.2018 23.6867C17.8611 25.6789 18.577 26.9928 19.23 27.7981C19.8959 28.6193 20.4352 28.8417 20.7375 28.8417C21.039 28.8417 21.5745 28.6202 22.2391 27.7986C22.8908 26.9929 23.6068 25.6785 24.2736 23.6856L11.2987 17.7837ZM11.2987 17.7837C9.30591 17.1242 7.99172 16.4116 7.18633 15.7619C6.36512 15.0994 6.14374 14.5639 6.14374 14.2625C6.14374 13.961 6.36518 13.4255 7.18682 12.7609C7.99257 12.1092 9.30713 11.393 11.3003 10.7263C11.3003 10.7263 11.3003 10.7263 11.3003 10.7263L23.681 6.58476C23.6812 6.5847 23.6814 6.58464 23.6815 6.58459C24.7545 6.22698 25.7054 6.08596 26.4806 6.13544C27.2565 6.18496 27.8229 6.42168 28.186 6.7848C28.5502 7.14897 28.79 7.71667 28.8428 8.49405C28.8956 9.27088 28.758 10.2251 28.4005 11.3047C28.4005 11.3049 28.4004 11.3051 28.4003 11.3053L24.2737 23.6851L11.2987 17.7837ZM27.3077 24.6873L31.4345 12.3067L14.1819 24.7019C15.1588 27.6399 16.2828 29.4723 17.4264 30.5748C18.5824 31.6892 19.7452 32.0437 20.7375 32.0437C21.73 32.0437 22.8927 31.6891 24.0504 30.573C25.1957 29.4688 26.3233 27.6329 27.3075 24.6876L27.3077 24.6873Z" fill="#4D4D4D" stroke="#4D4D4D"/>
<path id="Vector_2" d="M18.8381 13.5444L18.8376 13.5449L21.091 15.7973L20.7375 15.4438L21.0915 15.7968L21.0914 15.7969C21.7092 15.1787 21.7091 14.1624 21.091 13.5444C20.4729 12.9262 19.4563 12.9262 18.8381 13.5444ZM14.7437 21.5C15.1329 21.5 15.5625 21.3586 15.8759 21.027L13.6173 18.7798L13.9708 19.1333L13.6168 18.7803L13.617 18.7801C12.9991 19.3983 12.9992 20.4146 13.6173 21.0327C13.9347 21.3502 14.3412 21.5 14.7437 21.5Z" fill="#4D4D4D" stroke="#4D4D4D"/>
</g>
</g>
</g>
</svg>
