<svg xmlns="http://www.w3.org/2000/svg" xmlns:xlink="http://www.w3.org/1999/xlink" id="Layer_1" x="0" y="0" version="1.1" viewBox="0 0 149 156" style="enable-background:new 0 0 149 156" xml:space="preserve"><style type="text/css">.st1{fill:#d1efff}.st2{fill:#5575ff}.st3{fill:#c1e3ff}.st4{fill:#3f63e1}.st5{fill:#b395df}.st6{fill:#f3dfff}.st7{fill:#ffebff}.st8{fill:#e1c5fd}.st9{fill:#c7a5e7}</style><g><defs><rect id="SVGID_1_" width="149" height="156"/></defs><clipPath id="SVGID_00000065764510705246574200000001761961834630659239_"><use xlink:href="#SVGID_1_" style="overflow:visible"/></clipPath><g style="clip-path:url(#SVGID_00000065764510705246574200000001761961834630659239_)"><path d="M52.1,156H14c-7.7,0-14-6.3-14-14V46.5c0-13.8,7.8-31.9,21.5-31.9h23c13.8,0,21.5,18.1,21.5,31.9V142 C66.1,149.7,59.8,156,52.1,156L52.1,156z" class="st1"/><path d="M66.1,68.9H0v42h66.1V68.9z" class="st2"/><path d="M25,0h16.2c1.9,0,3.4,1.5,3.4,3.4v11.2h-23V3.4C21.5,1.5,23.1,0,25,0z" class="st2"/><path d="M33,14.6h11.5c13.8,0,21.5,18.1,21.5,31.9V142c0,7.7-6.3,14-14,14H33" class="st3"/><path d="M66.1,68.9H33v42h33V68.9z" class="st4"/><path d="M33,0h6.6c2.7,0,4.9,2.2,4.9,5v9.7H33" class="st4"/><path d="M117.9,21.6H149l-12.1-11.2h-27.7L117.9,21.6z" class="st5"/><path d="M124.8,156l-43.2-6.4V21.6h43.2V156z" class="st6"/><path d="M101.3,3.7h32.9c1.5,0,2.7,1.2,2.7,2.7v4H98.6v-4C98.6,5,99.8,3.7,101.3,3.7z" class="st6"/><path d="M124.8,21.6H81.5l17.2-11.2l38.2,0L124.8,21.6z" class="st7"/><path d="M149,152l-24.2,4V21.6H149V152z" class="st8"/><path d="M130.8,16l-6.1,5.6H149L130.8,16z" class="st9"/></g></g></svg>