<svg width="149" height="156" viewBox="0 0 149 156" fill="none" xmlns="http://www.w3.org/2000/svg">
<g clip-path="url(#clip0_35_33)">
<path d="M52.0809 156H13.9873C6.26256 156 0 149.735 0 142.006V46.5142C0 32.7617 7.76895 14.6406 21.5193 14.6406H44.549C58.2993 14.6406 66.0682 32.7617 66.0682 46.5182V142.014C66.0682 149.743 59.8057 156.008 52.0809 156.008V156Z" fill="#E8F7FF"/>
<path d="M66.0682 68.9478H0V110.945H66.0682V68.9478Z" fill="#AABAFF"/>
<path d="M24.9579 0H41.1144C43.0104 0 44.553 1.53922 44.553 3.44014V14.6407H21.5193V3.44014C21.5193 1.54324 23.0578 0 24.9579 0Z" fill="#AABAFF"/>
<path d="M33.0321 14.6406H44.549C58.2993 14.6406 66.0682 32.7617 66.0682 46.5182V142.014C66.0682 149.743 59.8057 156.008 52.0809 156.008H33.0321" fill="#E0F1FF"/>
<path d="M66.0642 68.9478H33.0321V110.945H66.0642V68.9478Z" fill="#90A2E1"/>
<path d="M33.0321 0H39.6C42.3315 0 44.549 2.21841 44.549 4.95123V14.6407H33.0321" fill="#90A2E1"/>
<path d="M117.92 21.6418H149L136.885 10.4453H109.207L117.92 21.6418Z" fill="#C9BADF"/>
<path d="M124.765 156L81.5338 149.586V21.6416H124.765V156Z" fill="#F9EFFF"/>
<path d="M101.306 3.7417H134.157C135.663 3.7417 136.885 4.96343 136.885 6.4705V10.4452H98.5781V6.4705C98.5781 4.96343 99.7993 3.7417 101.306 3.7417Z" fill="#F9EFFF"/>
<path d="M124.765 21.6418H81.5338L98.7067 10.4734L136.885 10.4453L124.765 21.6418Z" fill="#FFF5FF"/>
<path d="M149 151.977L124.765 156V21.6416H149V151.977Z" fill="#EFE1FD"/>
<path d="M130.823 16.0435L124.765 21.6417H149L130.823 16.0435Z" fill="#D7C6E7"/>
</g>
<defs>
<clipPath id="clip0_35_33">
<rect width="149" height="156" fill="white"/>
</clipPath>
</defs>
</svg>
