<?xml version="1.0" encoding="utf-8"?>
<!-- Generator: Adobe Illustrator 27.4.1, SVG Export Plug-In . SVG Version: 6.00 Build 0)  -->
<svg version="1.1" id="Layer_1" xmlns="http://www.w3.org/2000/svg" xmlns:xlink="http://www.w3.org/1999/xlink" x="0px" y="0px"
	 viewBox="0 0 149 156" style="enable-background:new 0 0 149 156;" xml:space="preserve">
<style type="text/css">
	.st0{clip-path:url(#SVGID_00000178163949679167518950000002132349239037289663_);}
	.st1{fill:#D1EFFF;}
	.st2{fill:#5575FF;}
	.st3{fill:#C1E3FF;}
	.st4{fill:#3F63E1;}
	.st5{fill:#B395DF;}
	.st6{fill:#F3DFFF;}
	.st7{fill:#FFEBFF;}
	.st8{fill:#E1C5FD;}
	.st9{fill:#C7A5E7;}
</style>
<g>
	<defs>
		<rect id="SVGID_1_" width="149" height="156"/>
	</defs>
	<clipPath id="SVGID_00000065764510705246574200000001761961834630659239_">
		<use xlink:href="#SVGID_1_"  style="overflow:visible;"/>
	</clipPath>
	<g style="clip-path:url(#SVGID_00000065764510705246574200000001761961834630659239_);">
		<path class="st1" d="M52.1,156H14c-7.7,0-14-6.3-14-14V46.5c0-13.8,7.8-31.9,21.5-31.9h23c13.8,0,21.5,18.1,21.5,31.9V142
			C66.1,149.7,59.8,156,52.1,156L52.1,156z"/>
		<path class="st2" d="M66.1,68.9H0v42h66.1V68.9z"/>
		<path class="st2" d="M25,0h16.2c1.9,0,3.4,1.5,3.4,3.4v11.2h-23V3.4C21.5,1.5,23.1,0,25,0z"/>
		<path class="st3" d="M33,14.6h11.5c13.8,0,21.5,18.1,21.5,31.9V142c0,7.7-6.3,14-14,14H33"/>
		<path class="st4" d="M66.1,68.9H33v42h33V68.9z"/>
		<path class="st4" d="M33,0h6.6c2.7,0,4.9,2.2,4.9,5v9.7H33"/>
		<path class="st5" d="M117.9,21.6H149l-12.1-11.2h-27.7L117.9,21.6z"/>
		<path class="st6" d="M124.8,156l-43.2-6.4V21.6h43.2V156z"/>
		<path class="st6" d="M101.3,3.7h32.9c1.5,0,2.7,1.2,2.7,2.7v4H98.6v-4C98.6,5,99.8,3.7,101.3,3.7z"/>
		<path class="st7" d="M124.8,21.6H81.5l17.2-11.2l38.2,0L124.8,21.6z"/>
		<path class="st8" d="M149,152l-24.2,4V21.6H149V152z"/>
		<path class="st9" d="M130.8,16l-6.1,5.6H149L130.8,16z"/>
	</g>
</g>
</svg>
