<?xml version="1.0" encoding="utf-8"?>
<!-- Generator: Adobe Illustrator 27.4.1, SVG Export Plug-In . SVG Version: 6.00 Build 0)  -->
<svg version="1.1" id="Layer_1" xmlns="http://www.w3.org/2000/svg" xmlns:xlink="http://www.w3.org/1999/xlink" x="0px" y="0px"
	 viewBox="0 0 107 180" style="enable-background:new 0 0 107 180;" xml:space="preserve">
<style type="text/css">
	.st0{clip-path:url(#SVGID_00000145034034300393081890000007994865214382502786_);}
	.st1{fill:#3D2941;}
	.st2{fill:#515171;}
</style>
<g>
	<defs>
		<rect id="SVGID_1_" width="107" height="180"/>
	</defs>
	<clipPath id="SVGID_00000152248935744834592060000009967275283448693183_">
		<use xlink:href="#SVGID_1_"  style="overflow:visible;"/>
	</clipPath>
	<g style="clip-path:url(#SVGID_00000152248935744834592060000009967275283448693183_);">
		<path class="st1" d="M73.3,38.5l7.1-8.6c3.6-4.3,3.5-10.3-0.1-13.3s-9.5-2-13,2.3l-3.6,4.3V11.9c0-6.6-4.5-11.9-10-11.9
			c-5.5,0-10,5.3-10,11.9v11.6l-3.9-4.7c-3.6-4.3-9.4-5.3-13-2.3c-3.6,3-3.7,9-0.1,13.3l7.1,8.6C14,45.5,0,62.8,0,83v67.7
			C0,166.9,14.6,180,32.6,180h41.7c18,0,32.6-13.1,32.6-29.3V83C107,62.8,93,45.5,73.3,38.5L73.3,38.5z"/>
		<path class="st2" d="M78.5,19c1.1-1.5,0.3-3.7-1.6-4c-3.3-0.7-7.1,0.7-9.7,3.9l-9.1,10.9c-1.5,1.8-4.5,0.8-4.5-1.7v-25
			c0-1.9-1.9-3.1-3.6-2.3c-3.7,1.7-6.4,6-6.4,11.1v16.9c0,1.5-0.4,2.8-1.6,3.3c-1.3,0.6-2.5,0-3.6-1.4c-3.2-3.9-6.4-7.7-9.6-11.6
			c-1.2-1.5-3.7-1.1-4.3,0.7c-1.1,3.1-0.4,7,2.1,10.1l4.8,5.8c1.1,1.3,0.6,3.3-1,4C12.5,47.4,0,63.9,0,83v67.7
			C0,166.9,14.6,180,32.6,180h18.3c1.4,0,2.6-1.2,2.6-2.6V53.3c0.1,0,0.1,0,0.2,0L78.5,19z"/>
	</g>
</g>
</svg>
