<svg xmlns="http://www.w3.org/2000/svg" width="305" height="113" fill="none" viewBox="0 0 305 113"><g clip-path="url(#clip0_37_85)"><path fill="#161818" d="M275.867 67.1377H35.0715V96.3653H275.867V67.1377Z"/><path fill="#fff" d="M1.12073 81.84V85.1525C1.12073 85.1525 4.46993 90.6208 4.79108 90.5156C5.11224 90.4105 36.3627 82.5761 36.3627 82.5761L58.0506 78.212C58.0506 78.212 60.7706 75.445 63.3333 74.2554C65.896 73.0658 58.9419 71.1992 58.9419 71.1992L7.67493 76.6741L1.12073 81.8334V81.84Z"/><path fill="#fff" d="M305 73.3877H302.306V76.6739H305V73.3877Z"/><path fill="#025DAF" d="M40.9703 2.98389C17.8208 10.7131 1.12073 32.6125 1.12073 58.429V66.4408H298.898V15.0443C298.898 14.7026 298.885 14.3674 298.859 14.0322H87.7346C87.7346 14.0322 62.1535 5.56028 40.9703 2.98389Z"/><path fill="#5F6364" d="M9.90336 27.5647C4.33884 36.5229 1.12073 47.098 1.12073 58.4289V66.4407H298.898V25.5732"/><path fill="#3A3A3B" d="M7.67493 66.4406V58.4288C7.67493 49.9044 9.75261 41.5639 13.7048 34.1108L261.421 32.1851V55.859L242.919 66.4406H7.67493Z"/><path fill="#00A147" d="M283.889 0H59.3877C52.9514 0 46.7577 1.05159 40.9703 2.98389C62.1535 5.56029 87.7281 14.0387 87.7281 14.0387H298.859C298.341 6.19781 291.839 0 283.889 0Z"/><path fill="#00A147" d="M1.12073 66.4409V81.8402L63.3333 74.2556C66.5448 72.5139 70.2152 71.528 74.1215 71.528C77.3265 71.528 80.3742 72.1984 83.1335 73.3946H217.305C219.527 72.6059 223.158 71.6331 227.673 71.8632C230.852 72.0209 233.467 72.7307 235.335 73.3946H298.891V66.4409H1.12073Z"/><path fill="#025DAF" d="M51.4112 94.2949C51.4112 88.0117 53.9476 82.3265 58.0506 78.2056L1.12073 85.1461V85.7836C1.12073 94.0912 7.83879 100.828 16.1233 100.828H52.3615C51.7454 98.7576 51.4046 96.5624 51.4046 94.2883L51.4112 94.2949Z"/><path fill="#025DAF" d="M211.937 76.6743H88.5079C93.5874 80.8478 96.8318 87.1902 96.8318 94.295C96.8318 96.5691 96.4975 98.7643 95.8749 100.835H108.328C116.029 93.5458 151.468 92.5271 171.347 89.7798C174.263 89.3788 177.186 88.9911 180.116 88.6164C181.82 88.3996 183.531 88.1892 185.235 87.9789C185.733 87.9198 186.225 87.8606 186.723 87.8015C186.86 87.7883 187.044 87.762 187.273 87.7357C187.378 87.7226 187.49 87.7094 187.614 87.6963C193.48 87.0325 199.353 86.4147 205.238 85.8429C206.674 82.2412 208.994 79.093 211.937 76.6743Z"/><path fill="#025DAF" d="M240.71 76.6743C242.696 78.3043 244.4 80.2629 245.737 82.4712C263.446 81.2027 281.175 80.1248 298.891 78.9944V76.6743H240.71Z"/><path fill="#fff" d="M217.305 73.3877H83.1335C85.0801 74.2355 86.8891 75.3397 88.508 76.6739H211.937C213.556 75.3397 215.365 74.2355 217.311 73.3877H217.305Z"/><path fill="#fff" d="M235.335 73.3877C237.282 74.2355 239.091 75.3397 240.71 76.6739H298.891V73.3877H235.335Z"/><path fill="#00A147" d="M203.613 94.2947C203.613 91.3108 204.19 88.4584 205.232 85.8491C199.353 86.4209 193.48 87.0387 187.608 87.7026C187.483 87.7157 187.372 87.7288 187.267 87.742C187.037 87.7683 186.854 87.7946 186.716 87.8077C186.218 87.8669 185.726 87.926 185.228 87.9852C183.518 88.1955 181.814 88.4058 180.109 88.6227C177.186 88.9973 174.263 89.3851 171.34 89.786C151.461 92.5333 116.022 93.552 108.321 100.841H204.563C203.947 98.7705 203.606 96.5753 203.606 94.3013L203.613 94.2947Z"/><path fill="#00A147" d="M245.737 82.4778C247.828 85.9218 249.034 89.9704 249.034 94.2951C249.034 96.5691 248.699 98.7643 248.077 100.835H258.308C266.592 100.835 298.891 94.0979 298.891 85.7903V79.001C281.169 80.138 263.446 81.2093 245.737 82.4778Z"/><path fill="#3A3A3B" d="M74.1608 113.006C84.4229 113.006 92.7419 104.664 92.7419 94.3736C92.7419 84.0829 84.4229 75.7407 74.1608 75.7407C63.8987 75.7407 55.5796 84.0829 55.5796 94.3736C55.5796 104.664 63.8987 113.006 74.1608 113.006Z"/><path fill="#5F6364" d="M74.1608 104.995C80.0104 104.995 84.7524 100.239 84.7524 94.3735C84.7524 88.5077 80.0104 83.7524 74.1608 83.7524C68.3112 83.7524 63.5692 88.5077 63.5692 94.3735C63.5692 100.239 68.3112 104.995 74.1608 104.995Z"/><path fill="#3A3A3B" d="M226.14 113.006C236.402 113.006 244.721 104.664 244.721 94.3736C244.721 84.0829 236.402 75.7407 226.14 75.7407C215.878 75.7407 207.559 84.0829 207.559 94.3736C207.559 104.664 215.878 113.006 226.14 113.006Z"/><path fill="#5F6364" d="M226.14 104.995C231.989 104.995 236.731 100.239 236.731 94.3735C236.731 88.5077 231.989 83.7524 226.14 83.7524C220.29 83.7524 215.548 88.5077 215.548 94.3735C215.548 100.239 220.29 104.995 226.14 104.995Z"/><path fill="#3A3A3B" d="M15.789 86.7299L1.83514 90.6076C0.747142 90.9099 -0.0065918 91.9024 -0.0065918 93.0328V98.3434C-0.0065918 99.7302 1.11418 100.861 2.50367 100.861H16.4641C17.8471 100.861 18.9744 99.7367 18.9744 98.3434V89.1551C18.9744 87.4923 17.3948 86.2829 15.7956 86.7299H15.789Z"/><g style="mix-blend-mode:multiply" opacity=".3"><path fill="#161818" d="M275.873 67.1377H159.267V96.3653H275.873V67.1377Z"/><path fill="#fff" d="M305 73.3877H302.306V76.6739H305V73.3877Z"/><path fill="#025DAF" d="M298.859 14.0388H159.267V66.4409H298.898V15.0444C298.898 14.7026 298.885 14.3674 298.859 14.0322V14.0388Z"/><path fill="#5F6364" d="M159.267 26.5328V66.4407H298.898V25.5732L159.267 26.5328Z"/><path fill="#3A3A3B" d="M159.267 32.9806V66.4409H242.919L261.421 55.8593V32.1919L159.267 32.9806Z"/><path fill="#00A147" d="M159.267 14.0387H298.859C298.341 6.19781 291.839 0 283.889 0H159.267V14.0387Z"/><path fill="#00A147" d="M159.267 66.4409V73.3946H217.311C219.533 72.6059 223.164 71.6331 227.68 71.8632C230.859 72.0209 233.474 72.7307 235.342 73.3946H298.898V66.4409H159.267Z"/><path fill="#025DAF" d="M159.267 76.6743V91.1534C163.632 90.7196 167.748 90.2793 171.347 89.7863C174.263 89.3854 177.186 88.9976 180.116 88.623C181.82 88.4061 183.531 88.1958 185.235 87.9855C185.733 87.9263 186.225 87.8672 186.723 87.808C186.86 87.7949 187.044 87.7686 187.273 87.7423C187.378 87.7292 187.49 87.716 187.614 87.7029C193.48 87.0391 199.353 86.4212 205.238 85.8494C206.674 82.2477 208.994 79.0995 211.937 76.6809H159.267V76.6743Z"/><path fill="#025DAF" d="M240.71 76.6743C242.696 78.3043 244.4 80.2629 245.737 82.4712C263.446 81.2027 281.175 80.1248 298.891 78.9944V76.6743H240.71Z"/><path fill="#fff" d="M159.267 73.3877V76.6739H211.937C213.556 75.3397 215.365 74.2355 217.311 73.3877H159.267Z"/><path fill="#fff" d="M235.335 73.3877C237.282 74.2355 239.091 75.3397 240.71 76.6739H298.891V73.3877H235.335Z"/><path fill="#00A147" d="M205.232 85.8491C199.353 86.4209 193.48 87.0387 187.608 87.7026C187.483 87.7157 187.372 87.7288 187.267 87.742C187.037 87.7683 186.854 87.7946 186.716 87.8077C186.218 87.8669 185.726 87.926 185.228 87.9852C183.518 88.1955 181.814 88.4058 180.11 88.6227C177.186 88.9973 174.263 89.3851 171.34 89.786C167.742 90.2855 163.626 90.7259 159.261 91.1531V100.834H204.563C203.947 98.764 203.606 96.5688 203.606 94.2947C203.606 91.3108 204.183 88.4584 205.225 85.8491H205.232Z"/><path fill="#00A147" d="M245.737 82.4778C247.828 85.9218 249.034 89.9704 249.034 94.2951C249.034 96.5691 248.699 98.7643 248.077 100.835H258.308C266.592 100.835 298.891 94.0979 298.891 85.7903V79.001C281.169 80.138 263.446 81.2093 245.737 82.4778Z"/><path fill="#3A3A3B" d="M226.14 113.006C236.402 113.006 244.721 104.664 244.721 94.3736C244.721 84.0829 236.402 75.7407 226.14 75.7407C215.878 75.7407 207.559 84.0829 207.559 94.3736C207.559 104.664 215.878 113.006 226.14 113.006Z"/><path fill="#5F6364" d="M226.14 104.995C231.989 104.995 236.731 100.239 236.731 94.3735C236.731 88.5077 231.989 83.7524 226.14 83.7524C220.29 83.7524 215.548 88.5077 215.548 94.3735C215.548 100.239 220.29 104.995 226.14 104.995Z"/></g></g><defs><clipPath id="clip0_37_85"><rect width="305" height="113" fill="#fff"/></clipPath></defs></svg>