<svg xmlns="http://www.w3.org/2000/svg" xmlns:xlink="http://www.w3.org/1999/xlink" id="Layer_1" x="0" y="0" version="1.1" viewBox="0 0 96 169" style="enable-background:new 0 0 96 169" xml:space="preserve"><style type="text/css">.st1{fill:#ffe600}.st2{fill:#f7d300}.st3{opacity:.4}.st4{fill:#9b8f7d}.st5{fill:#e6e6e6}.st6{fill:#d2d2d2}</style><g><defs><rect id="SVGID_1_" width="96" height="169"/></defs><clipPath id="SVGID_00000152951199034366280260000009539590442666231450_"><use xlink:href="#SVGID_1_" style="overflow:visible"/></clipPath><g style="clip-path:url(#SVGID_00000152951199034366280260000009539590442666231450_)"><path d="M96,48C96,21.5,74.5,0,48,0C21.5,0,0,21.5,0,48c0,13.9,5.9,30.1,15.3,42.4c3.6,4.8,5.6,10.5,5.6,16.5v8 c0,15,12.1,27.1,27.1,27.1c15,0,27.1-12.1,27.1-27.1v-8c0-6,2-11.8,5.6-16.5C90.1,78.1,96,61.9,96,48L96,48z" class="st1"/><path d="M48,142.1c15,0,27.1-12.1,27.1-27.1v-8c0-6,2-11.8,5.6-16.5C90.1,78.1,96,61.9,96,48C96,21.5,74.5,0,48,0 V142.1z" class="st2"/><g class="st3"><path d="M66.4,59.6c-1.1-1.6-3.3-2.5-5.1-2.8c0,0,0,0,0,0c-2.2-0.4-4.4,0.3-6.3,1.7c-2,1.5-4.4,2.3-6.8,2.3 c-2.6,0-5-0.9-6.9-2.4c-1.3-1-3-1.7-4.7-1.7c-1.7-0.1-3.3,0.3-4.9,1.2c-0.8,0.4-1.6,1-2.1,1.7c-0.6,0.9-0.7,1.9-0.7,2.9 c0,1.6,0.1,3.2,0.4,4.7c0.5,2.8,1.4,5.5,2.3,8.2c0.5,1.4,0.9,2.8,1.3,4.2c0.2,0.7,0.3,1.3,0.5,2c0.1,0.3,0.1,0.7,0.2,1 c0,0.1,0,0.2,0,0.3c0,0.2,0,0.3,0.1,0.5c0.3,3.3-0.3,6.5-0.4,9.7c-0.1,3.2,0.5,6.4,2.1,9.2c1.2,2.2,2.9,4,4.3,6.1 c1.5,2.2,2.8,4.6,3.9,7c0.1,0.3,0.3,0.7,0.4,1c0,0,0,0.1,0,0.1c0.1,0.2,0.2,0.4,0.2,0.6c0.3,0.7,0.5,1.4,0.7,2.2 c0.2,0.7,0.3,1.4,0.5,2.1c0,0,0,0,0,0c0,0,0,0,0,0c0,0,0,0,0,0.1c0,0.1,0,0.2,0,0.2c0,0.1,0,0.3,0,0.3c0,0.4,0,0.7,0,1.1 c0,0.8,0.4,1.5,1,1.9c0.4,0.3,0.9,0.5,1.5,0.5c0.6,0,1.1-0.2,1.5-0.6c0.6-0.4,1-1.1,0.9-1.9c0-0.3,0-0.6,0-0.9c0-0.1,0-0.2,0-0.4 c0,0,0-0.2,0-0.3c0-0.1,0-0.2,0-0.2c0-0.1,0-0.3,0.1-0.4c0.1-0.4,0.2-0.7,0.3-1.1c0.2-0.6,0.4-1.2,0.6-1.8 c0.1-0.3,0.2-0.6,0.3-0.9c0.1-0.2,0.1-0.3,0.2-0.5c0-0.1,0.1-0.1,0.1-0.2c1-2.2,2.1-4.4,3.3-6.5c1.3-2.1,2.9-3.9,4.3-6 c1.7-2.5,2.7-5.3,3-8.3c0.3-3.3-0.4-6.7-0.5-10c0-0.7,0-1.4,0.1-2.2c0-0.2,0-0.3,0-0.5c0,0,0-0.1,0-0.1c0,0,0,0,0,0 c0.1-0.4,0.1-0.8,0.2-1.2c0.3-1.4,0.7-2.8,1.1-4.1c0.9-2.7,1.9-5.4,2.6-8.2c0.4-1.5,0.6-3.1,0.8-4.6C67.2,63,67.3,61,66.4,59.6 L66.4,59.6z M62.1,63.9c0,0.3,0,0.7-0.1,1c0,0.2,0,0.4-0.1,0.5c0,0,0,0,0,0c-0.1,0.7-0.3,1.5-0.4,2.2c-0.6,2.7-1.6,5.3-2.4,7.9 c-0.9,2.9-1.7,5.8-1.8,8.8c-0.2,3.3,0.5,6.5,0.5,9.7c0,0.4,0,0.8,0,1.2c0,0.2,0,0.3,0,0.5c0,0.1,0,0.1,0,0.2c0,0,0,0,0,0.1 c-0.1,0.7-0.3,1.4-0.5,2c-0.1,0.3-0.2,0.5-0.3,0.8c0,0.1-0.2,0.4-0.2,0.5c-0.3,0.6-0.6,1.1-1,1.7c-1.3,2-3,3.8-4.3,5.9 c-1.4,2.1-2.5,4.4-3.5,6.6c-0.8-1.7-1.6-3.4-2.6-5.1c-1.2-2.2-2.8-4-4.2-6c-0.7-1-1.4-2-1.9-3c0-0.1-0.2-0.5-0.3-0.6 c-0.1-0.2-0.2-0.5-0.3-0.7c-0.2-0.7-0.4-1.3-0.5-2c0-0.1,0-0.1,0-0.2c0,0,0,0,0-0.1c0-0.2,0-0.4-0.1-0.6c0-0.3,0-0.7,0-1 c0-0.9,0-1.7,0.1-2.6c0.1-1.7,0.3-3.3,0.4-5c0.1-3.1-0.4-6.1-1.2-9.1c-0.8-2.7-1.8-5.3-2.6-8c-0.4-1.4-0.7-2.7-0.9-4.1 c0,0,0,0,0,0c0,0,0,0,0,0c0,0,0,0,0,0c0,0,0-0.1,0-0.2c0-0.1,0-0.2,0-0.3c0-0.4-0.1-0.8-0.1-1.1c0-0.3,0-0.6,0-0.9 c0-0.2,0-0.4,0-0.6c0,0,0,0,0-0.1c0.1-0.1,0.2-0.1,0.3-0.2c0,0,0.4-0.2,0.4-0.2c0.3-0.1,0.6-0.2,1-0.3c0,0,0.3,0,0.4-0.1 c0.1,0,0.4,0,0.4,0c0.2,0,0.4,0,0.6,0c0,0,0.1,0,0.1,0c0,0,0.1,0,0.1,0c0.4,0.1,0.7,0.2,1.1,0.3l0,0c0.2,0.1,0.4,0.2,0.5,0.3 c0.3,0.2,0.7,0.4,1,0.6c1.4,0.8,2.7,1.7,4.2,2.2c0.9,0.3,1.9,0.4,2.9,0.3c0.8-0.1,1.6-0.1,2.3,0c2.1,0.2,4.2-0.9,6.1-2 c0.5-0.3,1.1-0.7,1.6-1c0.2-0.1,0.5-0.3,0.7-0.4c0,0,0,0,0.1,0c0,0,0,0,0,0c0.2-0.1,0.4-0.1,0.7-0.2c0.2,0,0.4-0.1,0.5-0.1 c0,0,0,0,0,0c0.3,0,0.7,0,1,0c0,0,0,0,0.1,0c0,0,0,0,0.1,0c0.1,0,0.3,0.1,0.5,0.1c0.1,0,0.3,0.1,0.4,0.1l0.6,0.2 c0.2,0.1,0.3,0.2,0.5,0.3v0C62.2,62.8,62.2,63.4,62.1,63.9L62.1,63.9z" class="st4"/><path d="M59,61.6C58.7,61.6,58.9,61.6,59,61.6L59,61.6z" class="st4"/><path d="M43.9,116.3C43.9,116.3,43.9,116.3,43.9,116.3L43.9,116.3z" class="st4"/><path d="M62,65.4C62,65.3,62.1,65,62,65.4L62,65.4z" class="st4"/><path d="M62.4,62.5C62.4,62.5,62.4,62.5,62.4,62.5C62.6,62.6,62.6,62.7,62.4,62.5z" class="st4"/><path d="M33.9,65.3c0,0,0,0.1,0,0.2c0,0,0,0,0,0C33.9,65.2,33.9,65.2,33.9,65.3z" class="st4"/><path d="M45.4,121.4C45.4,121.4,45.4,121.4,45.4,121.4c0,0.1,0,0.2,0,0.2C45.4,121.5,45.4,121.4,45.4,121.4 L45.4,121.4z" class="st4"/></g><path d="M82.7,127.9v-1.7c0-2.8-2.3-5.2-5.2-5.2h-59c-2.8,0-5.2,2.3-5.2,5.2v1.7c0,2.8,2.3,5.2,5.2,5.2 c-2.8,0-5.2,2.3-5.2,5.2v1.7c0,2.8,2.3,5.2,5.2,5.2c-2.8,0-5.2,2.3-5.2,5.2v1.7c0,2.8,2.3,5.2,5.2,5.2c-2.8,0-5.2,2.3-5.2,5.2v1.7 c0,2.8,2.3,5.2,5.2,5.2h59c2.8,0,5.2-2.3,5.2-5.2v-1.7c0-2.8-2.3-5.2-5.2-5.2c2.8,0,5.2-2.3,5.2-5.2v-1.7c0-2.8-2.3-5.2-5.2-5.2 c2.8,0,5.2-2.3,5.2-5.2v-1.7c0-2.8-2.3-5.2-5.2-5.2C80.4,133,82.7,130.7,82.7,127.9z" class="st5"/><path d="M84,127.9v-1.7c0-2.8-2.3-5.2-5.2-5.2H48v48h30.9c2.8,0,5.2-2.3,5.2-5.2v-1.7c0-2.8-2.3-5.2-5.2-5.2 c2.8,0,5.2-2.3,5.2-5.2v-1.7c0-2.8-2.3-5.2-5.2-5.2c2.8,0,5.2-2.3,5.2-5.2v-1.7c0-2.8-2.3-5.2-5.2-5.2C81.7,133,84,130.7,84,127.9 L84,127.9z" class="st6"/></g></g></svg>