<svg width="96" height="169" viewBox="0 0 96 169" fill="none" xmlns="http://www.w3.org/2000/svg">
<g clip-path="url(#clip0_44_26)">
<path d="M96 48.0135C96 21.4943 74.5105 0 48.0027 0C21.495 0 0 21.4943 0 48.0135C0 61.8689 5.86926 78.0803 15.2579 90.398C18.8816 95.1538 20.8746 100.947 20.8746 106.922V114.929C20.8746 129.916 33.0194 142.063 48.0027 142.063C62.9861 142.063 75.1309 129.916 75.1309 114.929V106.922C75.1309 100.947 77.1239 95.1538 80.7476 90.398C90.1362 78.0803 96.0055 61.8689 96.0055 48.0135H96Z" fill="#FFEC3F"/>
<path d="M48.0027 142.058C62.986 142.058 75.1308 129.91 75.1308 114.924V106.917C75.1308 100.942 77.1239 95.1483 80.7476 90.3925C90.1362 78.0748 96.0054 61.8634 96.0054 48.008C95.9999 21.4943 74.5104 0 48.0027 0V142.058Z" fill="#F7DA31"/>
<g opacity="0.4">
<path d="M66.3792 59.5953C65.2976 58.0137 63.1289 57.0911 61.2896 56.7836C61.2731 56.7836 61.2567 56.7781 61.2402 56.7726C59.0221 56.4156 56.7929 57.1131 54.9811 58.4475C53.0046 59.9028 50.6052 60.776 48.1565 60.776C45.5101 60.776 43.1493 59.8863 41.2605 58.4146C39.9264 57.3712 38.2957 56.7286 36.5992 56.6737C34.9026 56.6188 33.2555 56.9922 31.6578 57.8489C30.8617 58.2773 30.0821 58.821 29.5824 59.5953C29.0169 60.4685 28.8906 61.4844 28.8632 62.5059C28.8193 64.0875 28.9949 65.6636 29.253 67.2177C29.7307 70.0459 30.686 72.7533 31.5919 75.4661C32.0531 76.85 32.5033 78.2339 32.8767 79.6398C33.0469 80.2933 33.2061 80.9468 33.3379 81.6113C33.4038 81.9463 33.4641 82.2758 33.5191 82.6108C33.53 82.6712 33.552 82.825 33.563 82.9018C33.5849 83.0721 33.6014 83.2478 33.6234 83.4181C33.9363 86.6801 33.3159 89.8982 33.2116 93.1548C33.1073 96.3893 33.7442 99.5141 35.3089 102.364C36.5113 104.55 38.1914 106.412 39.6299 108.438C41.1727 110.613 42.3916 113.062 43.5006 115.478C43.6489 115.802 43.7971 116.132 43.9399 116.461C43.9509 116.489 43.9618 116.511 43.9673 116.527C44.0442 116.725 44.1265 116.923 44.2034 117.12C44.4779 117.834 44.736 118.559 44.9501 119.295C45.1478 119.97 45.296 120.657 45.4333 121.349C45.4333 121.343 45.4333 121.332 45.4388 121.332C45.4388 121.332 45.4388 121.349 45.4333 121.36C45.4333 121.382 45.4442 121.404 45.4442 121.426C45.4717 121.569 45.4607 121.596 45.4442 121.58C45.4607 121.711 45.4827 121.854 45.4827 121.882C45.5101 122.233 45.5101 122.584 45.4992 122.941C45.4717 123.694 45.878 124.419 46.471 124.885C46.8827 125.226 47.3934 125.435 47.9698 125.413C48.5683 125.385 49.0954 125.171 49.5127 124.831C50.0837 124.386 50.468 123.727 50.4405 122.941C50.4296 122.65 50.4296 122.354 50.4405 122.063C50.446 121.942 50.457 121.821 50.468 121.7C50.468 121.684 50.4845 121.547 50.4954 121.442C50.5119 121.349 50.5284 121.25 50.5284 121.239C50.5503 121.113 50.5778 120.986 50.5998 120.855C50.6711 120.498 50.759 120.141 50.8523 119.789C51.0115 119.191 51.2037 118.598 51.4068 118.015C51.5112 117.719 51.621 117.422 51.7363 117.126C51.8022 116.961 51.868 116.796 51.9339 116.632C51.9614 116.566 51.9888 116.494 52.0163 116.428C53.0046 114.21 54.0752 111.997 55.3325 109.915C56.6118 107.806 58.2809 105.972 59.6589 103.935C61.3665 101.42 62.3987 98.6299 62.6732 95.593C62.9752 92.2486 62.2394 88.9262 62.223 85.5818C62.223 84.8569 62.2504 84.1375 62.3218 83.4181C62.3383 83.2643 62.3547 83.116 62.3712 82.9623C62.3712 82.9293 62.3767 82.9018 62.3822 82.8799C62.3822 82.8634 62.3877 82.8524 62.3932 82.8305C62.4646 82.4241 62.5249 82.0122 62.6073 81.6058C62.8873 80.2109 63.2662 78.838 63.6944 77.4816C64.5509 74.7467 65.5776 72.0668 66.2639 69.2826C66.6373 67.7669 66.8953 66.2182 67.0216 64.6641C67.1589 63.0495 67.3181 60.9847 66.3628 59.5898L66.3792 59.5953ZM62.1461 63.8788C62.1296 64.2193 62.1077 64.5542 62.0747 64.8947C62.0583 65.0759 62.0363 65.2627 62.0143 65.4439C62.0143 65.4494 62.0143 65.4549 62.0143 65.4604C61.899 66.1962 61.7618 66.9211 61.5916 67.646C60.9602 70.326 59.9939 72.9125 59.1483 75.532C58.226 78.3932 57.4902 81.3257 57.331 84.3407C57.1608 87.5917 57.8416 90.8098 57.8251 94.0609C57.8251 94.4453 57.8142 94.8297 57.7867 95.2141C57.7757 95.3844 57.7593 95.5546 57.7428 95.7248C57.7428 95.7907 57.7373 95.8402 57.7318 95.8786C57.7318 95.8951 57.7208 95.9225 57.7153 95.9555C57.5836 96.6365 57.4463 97.3119 57.2267 97.9709C57.1388 98.2455 57.0345 98.5146 56.9247 98.7837C56.8808 98.8716 56.7545 99.1516 56.7051 99.256C56.4141 99.8381 56.0847 100.404 55.7333 100.953C54.4211 102.996 52.7795 104.797 51.4563 106.829C50.1056 108.899 48.9746 111.189 47.9808 113.457C47.2012 111.728 46.3337 110.042 45.4223 108.378C44.2418 106.219 42.6661 104.358 41.2166 102.381C40.5084 101.414 39.844 100.415 39.3005 99.3383C39.2565 99.245 39.0644 98.8221 39.0259 98.7562C38.9326 98.5256 38.8448 98.2949 38.7679 98.0588C38.5483 97.4053 38.3945 96.7408 38.2683 96.0708C38.2573 96.0104 38.2463 95.961 38.2408 95.917C38.2408 95.8951 38.2408 95.8731 38.2408 95.8402C38.2243 95.626 38.2024 95.4173 38.1859 95.2031C38.164 94.8627 38.153 94.5222 38.1475 94.1762C38.1365 93.314 38.1804 92.4463 38.2463 91.5896C38.3671 89.9311 38.5702 88.2837 38.6416 86.6252C38.7734 83.5553 38.2847 80.5075 37.4447 77.5585C36.6815 74.8676 35.6713 72.259 34.8917 69.5736C34.4963 68.2172 34.1779 66.8443 33.9583 65.4494C33.9583 65.4439 33.9583 65.4329 33.9583 65.4219C33.9583 65.4274 33.9583 65.4329 33.9583 65.4384C33.9583 65.4329 33.9583 65.4219 33.9583 65.4164C33.9528 65.3725 33.9473 65.3121 33.9418 65.2627C33.9308 65.1748 33.9199 65.0814 33.9144 64.9936C33.8759 64.6201 33.8485 64.2412 33.832 63.8678C33.821 63.5657 33.81 63.2582 33.8155 62.9562C33.8155 62.764 33.8155 62.5718 33.8265 62.3795C33.8265 62.3576 33.8265 62.3301 33.8265 62.3082C33.9418 62.2423 34.0516 62.1709 34.1669 62.1105C34.1834 62.0995 34.5677 61.9292 34.5842 61.9128C34.8972 61.7974 35.2211 61.6986 35.5505 61.6272C35.545 61.6272 35.847 61.5888 35.9568 61.5668C36.0996 61.5668 36.3137 61.5503 36.3576 61.5503C36.5443 61.5503 36.7364 61.5613 36.9231 61.5668C36.9725 61.5668 37.011 61.5668 37.0384 61.5668C37.0714 61.5778 37.1098 61.5888 37.1647 61.6052C37.5271 61.7041 37.8784 61.8029 38.2298 61.9182L38.2628 61.9347C38.444 62.0281 38.6306 62.1159 38.8118 62.2093C39.1522 62.3905 39.4871 62.5827 39.8166 62.7859C41.1892 63.6042 42.5233 64.4719 44.0497 64.9881C44.9885 65.3066 45.9713 65.4054 46.9267 65.2791C47.7008 65.1748 48.4859 65.2242 49.2656 65.2791C51.3739 65.4439 53.4603 64.4279 55.349 63.2802C55.8925 62.9507 56.4361 62.6102 56.9906 62.3027C57.2322 62.1709 57.4738 62.05 57.7208 61.9292C57.7428 61.9182 57.7648 61.9073 57.7812 61.8963C57.7922 61.8963 57.8032 61.8908 57.8251 61.8853C58.0503 61.8249 58.2644 61.737 58.4895 61.6766C58.6652 61.6327 58.8409 61.5942 59.0221 61.5613C59.0385 61.5613 59.0495 61.5613 59.066 61.5613C59.4064 61.5448 59.7468 61.5778 60.0817 61.5613C60.1037 61.5613 60.1256 61.5613 60.1421 61.5613C60.1641 61.5613 60.186 61.5723 60.2135 61.5778C60.3617 61.6107 60.51 61.6382 60.6637 61.6766C60.8119 61.7151 60.9602 61.759 61.1084 61.8029L61.6629 62.0336C61.8332 62.1214 61.9979 62.2148 62.1571 62.3136V62.3246C62.1845 62.8408 62.1791 63.3571 62.1571 63.8733L62.1461 63.8788Z" fill="#9B9285"/>
<path d="M58.9781 61.5776C58.6816 61.5941 58.8573 61.5886 58.9781 61.5776V61.5776Z" fill="#9B9285"/>
<path d="M43.8906 116.34C43.8796 116.313 43.8796 116.318 43.8906 116.34V116.34Z" fill="#9B9285"/>
<path d="M62.0198 65.4385C62.0362 65.3232 62.0857 65.0266 62.0198 65.4385V65.4385Z" fill="#9B9285"/>
<path d="M62.3821 62.4619C62.3821 62.4619 62.4205 62.4839 62.437 62.4949C62.6017 62.5937 62.6237 62.7365 62.3821 62.4619Z" fill="#9B9285"/>
<path d="M33.9309 65.2791C33.9364 65.3285 33.9419 65.3779 33.9474 65.4328C33.9474 65.4328 33.9474 65.4328 33.9474 65.4383C33.92 65.1802 33.92 65.2022 33.9309 65.2791Z" fill="#9B9285"/>
<path d="M45.4387 121.365C45.4387 121.365 45.4387 121.36 45.4387 121.354C45.4058 121.426 45.4387 121.558 45.4607 121.585C45.4497 121.497 45.4387 121.409 45.4442 121.365H45.4387Z" fill="#9B9285"/>
</g>
<path d="M82.6802 127.857V126.193C82.6802 123.353 80.3577 121.025 77.5137 121.025H18.4807C15.6421 121.025 13.3142 123.348 13.3142 126.193V127.857C13.3142 130.696 15.6367 133.024 18.4807 133.024C15.6421 133.024 13.3142 135.347 13.3142 138.192V139.856C13.3142 142.695 15.6367 145.023 18.4807 145.023C15.6421 145.023 13.3142 147.346 13.3142 150.191V151.855C13.3142 154.694 15.6367 157.023 18.4807 157.023C15.6421 157.023 13.3142 159.346 13.3142 162.19V163.854C13.3142 166.693 15.6367 169.022 18.4807 169.022H77.5137C80.3522 169.022 82.6802 166.699 82.6802 163.854V162.19C82.6802 159.351 80.3577 157.023 77.5137 157.023C80.3522 157.023 82.6802 154.7 82.6802 151.855V150.191C82.6802 147.352 80.3577 145.023 77.5137 145.023C80.3522 145.023 82.6802 142.7 82.6802 139.856V138.192C82.6802 135.353 80.3577 133.024 77.5137 133.024C80.3522 133.024 82.6802 130.701 82.6802 127.857Z" fill="#E6E6E6"/>
<path d="M84.0198 127.857V126.193C84.0198 123.353 81.6974 121.025 78.8534 121.025H48.0027V168.994H78.8534C81.6919 168.994 84.0198 166.671 84.0198 163.827V162.163C84.0198 159.324 81.6974 156.995 78.8534 156.995C81.6919 156.995 84.0198 154.672 84.0198 151.828V150.164C84.0198 147.324 81.6974 144.996 78.8534 144.996C81.6919 144.996 84.0198 142.673 84.0198 139.828V138.164C84.0198 135.325 81.6974 132.997 78.8534 132.997C81.6919 132.997 84.0198 130.674 84.0198 127.829V127.857Z" fill="#D2D2D2"/>
</g>
<defs>
<clipPath id="clip0_44_26">
<rect width="96" height="169" fill="white"/>
</clipPath>
</defs>
</svg>
