<svg width="172" height="151" viewBox="0 0 172 151" fill="none" xmlns="http://www.w3.org/2000/svg">
<g clip-path="url(#clip0_336_364)">
<path d="M162.298 25.4575H9.70239L28.2568 151H143.743L162.298 25.4575Z" fill="#54BD61"/>
<path d="M0 25.4575H172L163.863 0H8.13724L0 25.4575Z" fill="#60CF81"/>
<path d="M97.0825 25.4575L86.002 151H143.743L162.298 25.4575H97.0825Z" fill="#54A571"/>
<path d="M81.0022 25.4575H172L163.863 0H86.0018L81.0022 25.4575Z" fill="#60BB81"/>
<g opacity="0.5">
<path d="M126.545 44.314C119.881 55.6035 107.54 60.8997 95.6894 63.8515C83.8428 66.8033 71.417 68.2018 60.7066 74.5662C51.7703 79.8746 44.2342 89.994 43.5891 100.839C69.7822 99.5099 98.1453 87.6496 102.569 81.6848C101.433 84.286 98.3689 86.4917 95.147 88.4936C81.6362 96.8802 63.7966 103.094 44.3479 106.351C45.0186 107.86 46.0706 109.156 47.4122 110.037L47.4525 110.066L47.5184 110.11C50.0036 111.729 52.7783 112.716 55.6447 113.005C66.9965 114.151 78.4729 115.101 89.6891 112.96C101.649 110.677 113.489 104.427 120.497 93.4065C126.226 84.3961 128.15 73.2819 128.378 62.1065C128.499 56.1131 127.839 50.132 126.534 44.318L126.545 44.314Z" fill="#C5FFBF"/>
</g>
</g>
<defs>
<clipPath id="clip0_336_364">
<rect width="172" height="151" fill="white"/>
</clipPath>
</defs>
</svg>
