<?xml version="1.0" encoding="utf-8"?>
<!-- Generator: Adobe Illustrator 27.4.1, SVG Export Plug-In . SVG Version: 6.00 Build 0)  -->
<svg version="1.1" id="Layer_1" xmlns="http://www.w3.org/2000/svg" xmlns:xlink="http://www.w3.org/1999/xlink" x="0px" y="0px"
	 viewBox="0 0 172 151" style="enable-background:new 0 0 172 151;" xml:space="preserve">
<style type="text/css">
	.st0{clip-path:url(#SVGID_00000119829459732302059220000004755280426283702436_);}
	.st1{fill:#21BD34;}
	.st2{fill:#2ACF5B;}
	.st3{fill:#2CA558;}
	.st4{fill:#33BB65;}
	.st5{opacity:0.5;}
	.st6{fill:#A9FFA0;}
</style>
<g>
	<defs>
		<rect id="SVGID_1_" width="172" height="151"/>
	</defs>
	<clipPath id="SVGID_00000075855397619399226040000008621738039218631589_">
		<use xlink:href="#SVGID_1_"  style="overflow:visible;"/>
	</clipPath>
	<g style="clip-path:url(#SVGID_00000075855397619399226040000008621738039218631589_);">
		<path class="st1" d="M162.3,25.5H9.7L28.3,151h115.5L162.3,25.5z"/>
		<path class="st2" d="M0,25.5h172L163.9,0H8.1L0,25.5z"/>
		<path class="st3" d="M97.1,25.5L86,151h57.7l18.6-125.5H97.1z"/>
		<path class="st4" d="M81,25.5h91L163.9,0H86L81,25.5z"/>
		<g class="st5">
			<path class="st6" d="M126.5,44.3c-6.7,11.3-19,16.6-30.9,19.5c-11.8,3-24.3,4.4-35,10.7c-8.9,5.3-16.5,15.4-17.1,26.3
				c26.2-1.3,54.6-13.2,59-19.2c-1.1,2.6-4.2,4.8-7.4,6.8c-13.5,8.4-31.4,14.6-50.8,17.9c0.7,1.5,1.7,2.8,3.1,3.7l0,0l0.1,0
				c2.5,1.6,5.3,2.6,8.1,2.9c11.4,1.1,22.8,2.1,34,0c12-2.3,23.8-8.5,30.8-19.6c5.7-9,7.7-20.1,7.9-31.3
				C128.5,56.1,127.8,50.1,126.5,44.3L126.5,44.3z"/>
		</g>
	</g>
</g>
</svg>
