<svg xmlns="http://www.w3.org/2000/svg" id="Layer_2" data-name="Layer 2" viewBox="0 0 174.85 307.74"><defs><style>.cls-1{fill:#ffec3f}.cls-2{fill:#e6e6e6}.cls-3{opacity:.4}.cls-4{fill:#f7da31}.cls-5{fill:#d2d2d2}.cls-6{fill:#9b9285}</style></defs><g id="Layer_1-2" data-name="Layer 1"><g id="Bulb"><path d="M174.85,87.43C174.85,39.14,135.71,0,87.43,0S0,39.14,0,87.43c0,25.23,10.69,54.75,27.79,77.18,6.6,8.66,10.23,19.21,10.23,30.09v14.58c0,27.29,22.12,49.41,49.41,49.41h0c27.29,0,49.41-22.12,49.41-49.41v-14.58c0-10.88,3.63-21.43,10.23-30.09,17.1-22.43,27.79-51.95,27.79-77.18Z" class="cls-1"/><path d="M87.43,258.68h0c27.29,0,49.41-22.12,49.41-49.41v-14.58c0-10.88,3.63-21.43,10.23-30.09,17.1-22.43,27.79-51.95,27.79-77.18C174.85,39.14,135.71,0,87.43,0V258.68Z" class="cls-4"/><g class="cls-3"><path d="M120.9,108.52c-1.97-2.88-5.92-4.56-9.27-5.12-.03,0-.06-.01-.09-.02-4.04-.65-8.1,.62-11.4,3.05-3.6,2.65-7.97,4.24-12.43,4.24-4.82,0-9.12-1.62-12.56-4.3-2.43-1.9-5.4-3.07-8.49-3.17s-6.09,.58-9,2.14c-1.45,.78-2.87,1.77-3.78,3.18-1.03,1.59-1.26,3.44-1.31,5.3-.08,2.88,.24,5.75,.71,8.58,.87,5.15,2.61,10.08,4.26,15.02,.84,2.52,1.66,5.04,2.34,7.6,.31,1.19,.6,2.38,.84,3.59,.12,.61,.23,1.21,.33,1.82,.02,.11,.06,.39,.08,.53,.04,.31,.07,.63,.11,.94,.57,5.94-.56,11.8-.75,17.73-.19,5.89,.97,11.58,3.82,16.77,2.19,3.98,5.25,7.37,7.87,11.06,2.81,3.96,5.03,8.42,7.05,12.82,.27,.59,.54,1.19,.8,1.79,.02,.05,.04,.09,.05,.12,.14,.36,.29,.72,.43,1.08,.5,1.3,.97,2.62,1.36,3.96,.36,1.23,.63,2.48,.88,3.74,0-.01,0-.03,.01-.03,0,0,0,.03-.01,.05,0,.04,.02,.08,.02,.12,.05,.26,.03,.31,0,.28,.03,.24,.07,.5,.07,.55,.05,.64,.05,1.28,.03,1.93-.05,1.37,.69,2.69,1.77,3.54,.75,.62,1.68,1,2.73,.96,1.09-.05,2.05-.44,2.81-1.06,1.04-.81,1.74-2.01,1.69-3.44-.02-.53-.02-1.07,0-1.6,.01-.22,.03-.44,.05-.66,0-.03,.03-.28,.05-.47,.03-.17,.06-.35,.06-.37,.04-.23,.09-.46,.13-.7,.13-.65,.29-1.3,.46-1.94,.29-1.09,.64-2.17,1.01-3.23,.19-.54,.39-1.08,.6-1.62,.12-.3,.24-.6,.36-.9,.05-.12,.1-.25,.15-.37,1.8-4.04,3.75-8.07,6.04-11.86,2.33-3.84,5.37-7.18,7.88-10.89,3.11-4.58,4.99-9.66,5.49-15.19,.55-6.09-.79-12.14-.82-18.23,0-1.32,.05-2.63,.18-3.94,.03-.28,.06-.55,.09-.83,0-.06,.01-.11,.02-.15,0-.03,.01-.05,.02-.09,.13-.74,.24-1.49,.39-2.23,.51-2.54,1.2-5.04,1.98-7.51,1.56-4.98,3.43-9.86,4.68-14.93,.68-2.76,1.15-5.58,1.38-8.41,.25-2.94,.54-6.7-1.2-9.24Zm-7.71,7.8c-.03,.62-.07,1.23-.13,1.85-.03,.33-.07,.67-.11,1,0,.01,0,.02,0,.03-.21,1.34-.46,2.66-.77,3.98-1.15,4.88-2.91,9.59-4.45,14.36-1.68,5.21-3.02,10.55-3.31,16.04-.31,5.92,.93,11.78,.9,17.7,0,.7-.02,1.4-.07,2.1-.02,.31-.05,.62-.08,.93,0,.12-.01,.21-.02,.28,0,.03-.02,.08-.03,.14-.24,1.24-.49,2.47-.89,3.67-.16,.5-.35,.99-.55,1.48-.08,.16-.31,.67-.4,.86-.53,1.06-1.13,2.09-1.77,3.09-2.39,3.72-5.38,7-7.79,10.7-2.46,3.77-4.52,7.94-6.33,12.07-1.42-3.15-3-6.22-4.66-9.25-2.15-3.93-5.02-7.32-7.66-10.92-1.29-1.76-2.5-3.58-3.49-5.54-.08-.17-.43-.94-.5-1.06-.17-.42-.33-.84-.47-1.27-.4-1.19-.68-2.4-.91-3.62-.02-.11-.04-.2-.05-.28,0-.04,0-.08,0-.14-.03-.39-.07-.77-.1-1.16-.04-.62-.06-1.24-.07-1.87-.02-1.57,.06-3.15,.18-4.71,.22-3.02,.59-6.02,.72-9.04,.24-5.59-.65-11.14-2.18-16.51-1.39-4.9-3.23-9.65-4.65-14.54-.72-2.47-1.3-4.97-1.7-7.51,0-.01,0-.03,0-.05,0,.01,0,.02,0,.03,0-.01,0-.03,0-.04-.01-.08-.02-.19-.03-.28-.02-.16-.04-.33-.05-.49-.07-.68-.12-1.37-.15-2.05-.02-.55-.04-1.11-.03-1.66,0-.35,0-.7,.02-1.05,0-.04,0-.09,0-.13,.21-.12,.41-.25,.62-.36,.03-.02,.73-.33,.76-.36,.57-.21,1.16-.39,1.76-.52-.01,0,.54-.07,.74-.11,.26,0,.65-.03,.73-.03,.34,0,.69,.02,1.03,.03,.09,0,.16,0,.21,0,.06,.02,.13,.04,.23,.07,.66,.18,1.3,.36,1.94,.57l.06,.03c.33,.17,.67,.33,1,.5,.62,.33,1.23,.68,1.83,1.05,2.5,1.49,4.93,3.07,7.71,4.01,1.71,.58,3.5,.76,5.24,.53,1.41-.19,2.84-.1,4.26,0,3.84,.3,7.64-1.55,11.08-3.64,.99-.6,1.98-1.22,2.99-1.78,.44-.24,.88-.46,1.33-.68,.04-.02,.08-.04,.11-.06,.02,0,.04-.01,.08-.02,.41-.11,.8-.27,1.21-.38,.32-.08,.64-.15,.97-.21,.03,0,.05,0,.08,0,.62-.03,1.24,.03,1.85,0,.04,0,.08,0,.11,0,.04,0,.08,.02,.13,.03,.27,.06,.54,.11,.82,.18,.27,.07,.54,.15,.81,.23l1.01,.42c.31,.16,.61,.33,.9,.51v.02c.05,.94,.04,1.88,0,2.82Z" class="cls-6"/><path d="M107.42,112.13c-.22,.02-.54,.03,0,0h0Z" class="cls-6"/><path d="M79.94,211.85c-.02-.05-.02-.04,0,0h0Z" class="cls-6"/><path d="M112.96,119.16c.03-.21,.12-.75,0,0h0Z" class="cls-6"/><path d="M113.62,113.74s.07,.04,.1,.06c.3,.18,.34,.44-.1-.06Z" class="cls-6"/><path d="M61.8,118.87c.01,.09,.02,.18,.03,.28,0,0,0,0,0,.01-.05-.47-.05-.43-.03-.29Z" class="cls-6"/><path d="M82.76,221s0-.01,0-.02c-.06,.13,0,.37,.04,.42-.02-.16-.04-.32-.03-.4Z" class="cls-6"/></g><path d="M150.59,232.82v-3.03c0-5.17-4.23-9.41-9.41-9.41H33.66c-5.17,0-9.41,4.23-9.41,9.41v3.03c0,5.17,4.23,9.41,9.41,9.41-5.17,0-9.41,4.23-9.41,9.41v3.03c0,5.17,4.23,9.41,9.41,9.41-5.17,0-9.41,4.23-9.41,9.41v3.03c0,5.17,4.23,9.41,9.41,9.41-5.17,0-9.41,4.23-9.41,9.41v3.03c0,5.17,4.23,9.41,9.41,9.41h107.52c5.17,0,9.41-4.23,9.41-9.41v-3.03c0-5.17-4.23-9.41-9.41-9.41,5.17,0,9.41-4.23,9.41-9.41v-3.03c0-5.17-4.23-9.41-9.41-9.41,5.17,0,9.41-4.23,9.41-9.41v-3.03c0-5.17-4.23-9.41-9.41-9.41,5.17,0,9.41-4.23,9.41-9.41Z" class="cls-2"/><path d="M153.03,232.82v-3.03c0-5.17-4.23-9.41-9.41-9.41h-56.19v87.35h56.19c5.17,0,9.41-4.23,9.41-9.41v-3.03c0-5.17-4.23-9.41-9.41-9.41,5.17,0,9.41-4.23,9.41-9.41v-3.03c0-5.17-4.23-9.41-9.41-9.41,5.17,0,9.41-4.23,9.41-9.41v-3.03c0-5.17-4.23-9.41-9.41-9.41,5.17,0,9.41-4.23,9.41-9.41Z" class="cls-5"/></g></g></svg>