<?xml version="1.0" encoding="UTF-8"?>
<svg id="Layer_2" data-name="Layer 2" xmlns="http://www.w3.org/2000/svg" viewBox="0 0 465.35 171.93">
  <defs>
    <style>
      .cls-1 {
        fill: #fff;
      }

      .cls-2 {
        fill: #00a147;
      }

      .cls-3 {
        fill: #161818;
      }

      .cls-4 {
        fill: #3a3a3b;
      }

      .cls-5 {
        fill: #5f6364;
      }

      .cls-6 {
        fill: #025daf;
      }
    </style>
  </defs>
  <g id="Layer_2-2" data-name="Layer 2">
    <g id="Bus">
      <rect class="cls-3" x="53.51" y="102.15" width="367.39" height="44.47"/>
      <path class="cls-1" d="M1.71,124.52v5.04s5.11,8.32,5.6,8.16,48.17-12.08,48.17-12.08l33.09-6.64s4.15-4.21,8.06-6.02-6.7-4.65-6.7-4.65L11.71,116.66l-10,7.85Z"/>
      <rect class="cls-1" x="461.24" y="111.66" width="4.11" height="5"/>
      <path class="cls-6" d="M62.51,4.54C27.19,16.3,1.71,49.62,1.71,88.9v12.19H456.04V22.89c0-.52-.02-1.03-.06-1.54H133.86S94.83,8.46,62.51,4.54Z"/>
      <path class="cls-5" d="M15.11,41.94C6.62,55.57,1.71,71.66,1.71,88.9v12.19H456.04V38.91"/>
      <path class="cls-4" d="M11.71,101.09v-12.19c0-12.97,3.17-25.66,9.2-37l377.95-2.93v36.02l-28.23,16.1H11.71Z"/>
      <path class="cls-2" d="M433.14,0H90.61c-9.82,0-19.27,1.6-28.1,4.54,32.32,3.92,71.34,16.82,71.34,16.82H455.98c-.79-11.93-10.71-21.36-22.84-21.36Z"/>
      <path class="cls-2" d="M1.71,101.09v23.43l94.92-11.54c4.9-2.65,10.5-4.15,16.46-4.15,4.89,0,9.54,1.02,13.75,2.84h204.71c3.39-1.2,8.93-2.68,15.82-2.33,4.85,.24,8.84,1.32,11.69,2.33h96.97v-10.58H1.71Z"/>
      <path class="cls-6" d="M78.44,143.47c0-9.56,3.87-18.21,10.13-24.48L1.71,129.55v.97c0,12.64,10.25,22.89,22.89,22.89h55.29c-.94-3.15-1.46-6.49-1.46-9.95Z"/>
      <path class="cls-6" d="M323.36,116.66H135.04c7.75,6.35,12.7,16,12.7,26.81,0,3.46-.51,6.8-1.46,9.95h19c11.75-11.09,65.82-12.64,96.15-16.82,4.45-.61,8.91-1.2,13.38-1.77,2.6-.33,5.21-.65,7.81-.97,.76-.09,1.51-.18,2.27-.27,.21-.02,.49-.06,.84-.1,.16-.02,.33-.04,.52-.06,8.95-1.01,17.91-1.95,26.89-2.82,2.19-5.48,5.73-10.27,10.22-13.95Z"/>
      <path class="cls-6" d="M367.26,116.66c3.03,2.48,5.63,5.46,7.67,8.82,27.02-1.93,54.07-3.57,81.1-5.29v-3.53h-88.77Z"/>
      <g>
        <path class="cls-1" d="M331.55,111.66H126.84c2.97,1.29,5.73,2.97,8.2,5h188.32c2.47-2.03,5.23-3.71,8.2-5Z"/>
        <path class="cls-1" d="M359.06,111.66c2.97,1.29,5.73,2.97,8.2,5h88.77v-5h-96.97Z"/>
      </g>
      <path class="cls-2" d="M310.66,143.47c0-4.54,.88-8.88,2.47-12.85-8.97,.87-17.93,1.81-26.89,2.82-.19,.02-.36,.04-.52,.06-.35,.04-.63,.08-.84,.1-.76,.09-1.51,.18-2.27,.27-2.61,.32-5.21,.64-7.81,.97-4.46,.57-8.92,1.16-13.38,1.77-30.33,4.18-84.4,5.73-96.15,16.82h146.84c-.94-3.15-1.46-6.49-1.46-9.95Z"/>
      <path class="cls-2" d="M374.93,125.49c3.19,5.24,5.03,11.4,5.03,17.98,0,3.46-.51,6.8-1.46,9.95h15.61c12.64,0,61.92-10.25,61.92-22.89v-10.33c-27.04,1.73-54.08,3.36-81.1,5.29Z"/>
      <circle class="cls-4" cx="113.15" cy="143.59" r="28.35"/>
      <circle class="cls-5" cx="113.15" cy="143.59" r="16.16"/>
      <circle class="cls-4" cx="345.03" cy="143.59" r="28.35"/>
      <circle class="cls-5" cx="345.03" cy="143.59" r="16.16"/>
      <path class="cls-4" d="M24.09,131.96l-21.29,5.9c-1.66,.46-2.81,1.97-2.81,3.69v8.08c0,2.11,1.71,3.83,3.83,3.83H25.12c2.11,0,3.83-1.71,3.83-3.83v-13.98c0-2.53-2.41-4.37-4.85-3.69Z"/>
    </g>
  </g>
</svg>