<svg xmlns="http://www.w3.org/2000/svg" id="Layer_2" data-name="Layer 2" viewBox="0 0 469.25 370.36"><defs><style>.cls-1{opacity:.5}.cls-2{fill:#60cf81}.cls-3{fill:#60bb81}.cls-4{fill:#54a571}.cls-5{fill:#54bd61}.cls-6{fill:#c5ffbf}</style></defs><g id="Layer_1-2" data-name="Layer 1"><g><polygon points="442.78 62.44 26.47 62.44 77.09 370.36 392.16 370.36 442.78 62.44" class="cls-5"/><polygon points="0 62.44 469.25 62.44 447.05 0 22.2 0 0 62.44" class="cls-2"/><polygon points="264.86 62.44 234.63 370.36 392.16 370.36 442.78 62.44 264.86 62.44" class="cls-4"/><polygon points="220.99 62.44 469.25 62.44 447.05 0 234.63 0 220.99 62.44" class="cls-3"/><g class="cls-1"><path d="M345.24,108.69h0c-18.18,27.69-51.85,40.68-84.18,47.92-32.32,7.24-66.22,10.67-95.44,26.28-24.38,13.02-44.94,37.84-46.7,64.44,71.46-3.26,148.84-32.35,160.91-46.98-3.1,6.38-11.46,11.79-20.25,16.7-36.86,20.57-85.53,35.81-138.59,43.8,1.83,3.7,4.7,6.88,8.36,9.04l.11,.07,.18,.11c6.78,3.97,14.35,6.39,22.17,7.1,30.97,2.81,62.28,5.14,92.88-.11,32.63-5.6,64.93-20.93,84.05-47.96,15.63-22.1,20.88-49.36,21.5-76.77,.33-14.7-1.47-29.37-5.03-43.63Z" class="cls-6"/></g></g></g></svg>