<svg xmlns="http://www.w3.org/2000/svg" id="Layer_2" data-name="Layer 2" viewBox="0 0 275.26 460.09"><defs><style>.cls-1{fill:#616171}.cls-2{fill:#3f3541}</style></defs><g id="Layer_1-2" data-name="Layer 1"><g id="Garbage"><path d="M188.44,98.29l18.29-21.89c9.19-11,9.08-26.23-.25-34.03s-24.34-5.19-33.53,5.81l-9.17,10.98V30.37c0-16.78-11.53-30.37-25.75-30.37s-25.75,13.6-25.75,30.37v29.76l-9.98-11.95c-9.19-11-24.2-13.6-33.53-5.81-9.33,7.79-9.44,23.03-.25,34.03l18.29,21.89C35.96,116.3,0,160.54,0,212.27v173.04c0,41.3,37.58,74.78,83.95,74.78h107.37c46.36,0,83.95-33.48,83.95-74.78V212.27c0-51.72-35.96-95.96-86.82-113.97Z" class="cls-2"/><path d="M201.92,48.64c2.83-3.88,.69-9.4-4.02-10.34-8.43-1.69-18.23,1.87-24.94,9.89l-23.3,27.88c-3.94,4.72-11.63,1.93-11.63-4.22V8.04c0-4.8-4.97-7.99-9.33-5.99-9.61,4.41-16.42,15.42-16.42,28.32v43.24c-.12,3.79-1,7.03-4.19,8.35-3.39,1.41-6.5-.04-9.18-3.5-8.24-9.87-16.49-19.73-24.73-29.6-3.2-3.83-9.47-2.89-11.17,1.8-2.87,7.91-1.04,17.9,5.51,25.74l12.43,14.87c2.84,3.4,1.57,8.55-2.51,10.28C32.06,121.26,0,163.43,0,212.27v173.04c0,41.3,37.58,74.78,83.95,74.78h47.11c3.63,0,6.58-2.95,6.58-6.58V136.13c.14,0,.27,.02,.4,.02l63.88-87.51Z" class="cls-1"/></g></g></svg>