<?xml version="1.0" encoding="UTF-8"?>
<svg id="Layer_2" data-name="Layer 2" xmlns="http://www.w3.org/2000/svg" viewBox="0 0 370.92 388.17">
  <defs>
    <style>
      .cls-1 {
        fill: #f9efff;
      }

      .cls-2 {
        fill: #efe1fd;
      }

      .cls-3 {
        fill: #aabaff;
      }

      .cls-4 {
        fill: #90a2e1;
      }

      .cls-5 {
        fill: #c9badf;
      }

      .cls-6 {
        fill: #e0f1ff;
      }

      .cls-7 {
        fill: #fff5ff;
      }

      .cls-8 {
        fill: #d7c6e7;
      }

      .cls-9 {
        fill: #e8f7ff;
      }
    </style>
  </defs>
  <g id="Layer_1-2" data-name="Layer 1">
    <g>
      <g>
        <path class="cls-9" d="M129.65,388.17H34.82c-19.23,0-34.82-15.59-34.82-34.82V115.74C0,81.52,19.34,36.43,53.57,36.43h57.33c34.23,0,53.57,45.09,53.57,79.32v237.62c0,19.23-15.59,34.82-34.82,34.82Z"/>
        <rect class="cls-3" y="171.56" width="164.47" height="104.5"/>
        <path class="cls-3" d="M62.13,0h40.22c4.72,0,8.56,3.83,8.56,8.56v27.87H53.57V8.56c0-4.72,3.83-8.56,8.56-8.56Z"/>
        <path class="cls-6" d="M82.23,36.43h28.67c34.23,0,53.57,45.09,53.57,79.32v237.62c0,19.23-15.59,34.82-34.82,34.82h-47.42"/>
        <rect class="cls-4" x="82.23" y="171.56" width="82.23" height="104.5"/>
        <path class="cls-4" d="M82.23,0h16.35c6.8,0,12.32,5.52,12.32,12.32v24.11h-28.67"/>
      </g>
      <g>
        <polygon class="cls-5" points="293.55 53.85 370.92 53.85 340.76 25.99 271.86 25.99 293.55 53.85"/>
        <polygon class="cls-1" points="310.59 388.17 202.97 372.21 202.97 53.85 310.59 53.85 310.59 388.17"/>
        <path class="cls-1" d="M252.19,9.31h81.78c3.75,0,6.79,3.04,6.79,6.79v9.89h-95.36v-9.89c0-3.75,3.04-6.79,6.79-6.79Z"/>
        <polygon class="cls-7" points="310.59 53.85 202.97 53.85 245.72 26.06 340.76 25.99 310.59 53.85"/>
        <polygon class="cls-2" points="370.92 378.16 310.59 388.17 310.59 53.85 370.92 53.85 370.92 378.16"/>
        <polygon class="cls-8" points="325.67 39.92 310.59 53.85 370.92 53.85 325.67 39.92"/>
      </g>
    </g>
  </g>
</svg>