<?xml version="1.0" encoding="UTF-8"?>
<svg id="Layer_2" data-name="Layer 2" xmlns="http://www.w3.org/2000/svg" viewBox="0 0 433.5 399.15">
  <defs>
    <style>
      .cls-1 {
        fill: #81d7a6;
      }

      .cls-2 {
        fill: #333;
      }

      .cls-3 {
        fill: #30ab51;
      }

      .cls-4 {
        fill: #30bb51;
      }

      .cls-5 {
        fill: #8df196;
      }

      .cls-6 {
        fill: #b3b3b3;
      }

      .cls-7 {
        fill: #1a1a1a;
      }

      .cls-8 {
        fill: #c4c4c4;
      }
    </style>
  </defs>
  <g id="Layer_1-2" data-name="Layer 1">
    <g id="Shopping">
      <g>
        <path class="cls-4" d="M304.03,53.49c-9.89,4-18.59,10.79-23.3,20.38-2.76,5.57-3.86,12.46-6.23,17.63-1.66,3.73-4.18,7.2-7.18,10.16-6.11-10.61-14.97-19.57-20.24-30.27-8.47-14.41-8.19-30.79-3.27-46.29,8.22,4.42,17.26-12.13,20.62-25.1-12.33,5.05-27.15,15.52-23.46,22.38-9.76,16.25-13.8,35.94-6.87,54.67,.46,1.25,.99,2.49,1.56,3.73-1.63,.46-3.23,1.09-4.81,1.86-8.46,4.69-14.08,12.93-22.47,16.79-1.28,.61-2.54,.99-3.79,1.17,4.82-15.33-25.01-27.88-48.61-31.37,10.11,23.25,31.72,50.49,44.63,37.7,3.05,1,6.42,1.25,10.12,.41,10.61-1.51,18.13-13.23,28.53-12.46,1.14,.11,1.65,.39,1.76,.42,.09,.02,.43-.03,1.24,.76,.95,.86,1.99,1.79,3.14,2.66,.88,1.69,1.7,3.36,2.36,5,3.72,8.94,4.62,19.19,2.91,28.43-1.2,5.89-3.45,12.91-1.32,20.43,5.11-.41,8.68-1.17,12.16-2.84,11.9-5.46,15.01-22.56,11.5-34.05-.05-.24-.13-.46-.18-.7,3.23-2.15,5.96-5.05,7.61-7.97,6.45-9.64,5.22-20.73,8.87-30.58,2.45-8.51,8.48-15.11,16.1-20.05,.11,.18,.19,.36,.32,.54,12.61,18.6,41.18-10.21,55.37-34.73-26.91,3.15-61.81,15.73-57.05,31.28Z"/>
        <path class="cls-3" d="M182.34,91.42c1.35,1.28,2.71,2.56,4.13,3.77,.76,.65,1.33,1.15,1.81,1.57,.37,.22,.82,.5,1.36,.85h0c2.08,1.33,4.77,.95,6.5-.81,2.13-2.17,4.49-4.11,7.04-5.77,0,0,0-.01,0-.02-6.53-10.74-28.6-18.97-46.99-21.73-.01,0-.02,.01-.01,.02,8.21,7.96,17.83,14.23,26.16,22.12Z"/>
        <path class="cls-3" d="M302.05,58.77c.17-.14,.34-.27,.51-.41,.04-.03,.07-.05,.11-.08,2.81-2.27,5.93-4,9.41-5.13,1.87-.98,3.81-1.74,5.8-2.3,.29-.11,.58-.24,.87-.34,3.84-1.44,7.68-2.88,11.49-4.4,1.04-.41,3.51-1.16,4.89-1.56-.65,.19-1.64,.47-3.15,.9,3.79-1.07,7.71-3.09,11.43-5.17,.85-.64,2.6-2.01,3.46-2.63,.23-.21,.42-.38,.52-.48,1.39-1.3,2.73-2.63,4.02-4.03,.06-.06,.09-.1,.15-.16,.11-.22,.32-.52,.59-.85,.81-1.29,2.11-3.23,2.26-3.51,1.13-1.95,2.17-3.94,3.2-5.94-26.34,3.77-58.15,15.93-53.59,30.82-9.89,4-18.59,10.79-23.3,20.38-2.76,5.57-3.86,12.46-6.23,17.63-1.66,3.73-4.18,7.2-7.18,10.16-6.11-10.61-14.97-19.57-20.24-30.27-8.47-14.41-8.19-30.79-3.27-46.29,8.22,4.42,17.26-12.13,20.62-25.1-12.33,5.05-27.15,15.52-23.46,22.38-9.76,16.25-13.8,35.94-6.87,54.67,.46,1.25,.99,2.49,1.56,3.73-1.63,.46-3.23,1.09-4.81,1.86-1.09,.6-2.13,1.27-3.14,1.98,20.44,1.65,35.27,18.93,36.18,39.22,.5,11.08-4.63,21.3-12.56,28.56,4.08-.45,7.16-1.21,10.17-2.65,11.9-5.46,15.01-22.56,11.5-34.05-.05-.24-.13-.46-.18-.7,3.23-2.15,5.96-5.05,7.61-7.97,6.45-9.64,5.22-20.73,8.87-30.58,2.08-7.22,6.75-13.06,12.77-17.68Z"/>
      </g>
      <path class="cls-5" d="M357.87,141.5H98.17v120.92c0,53.15,20.13,68.81,80.75,68.81l230.54,3.61V185.47c0-24.24-23.14-43.96-51.59-43.96Zm33.2,43.96v7.84h-63.69v-36.14h30.49c18.31,0,33.2,12.69,33.2,28.3Zm-177.85,68.96v-45.45h95.78v45.45h-95.78Zm95.78,15.67v45.48h-95.78v-45.48h95.78Zm-114.16-15.67H116.56v-45.45h78.29v45.45Zm18.38-61.11v-36.14h95.78v36.14h-95.78Zm114.16,15.67h63.69v45.45h-63.69v-45.45Zm-132.55-51.8v36.14H116.56v-36.14h78.29Zm-77.63,112.92h77.63v45.48h-15.93c-31.33,0-62.36-9.49-61.7-45.48Zm210.18,45.48v-45.48h63.69v45.48h-63.69Z"/>
      <path class="cls-1" d="M357.87,141.5h-97.91v15.67h49.04v36.14h-49.04v15.67h49.04v45.45h-49.04v15.67h49.04v45.48h-49.04v16.93l149.5,2.34V185.47c0-24.24-23.14-43.96-51.59-43.96Zm33.2,174.06h-63.69v-45.48h63.69v45.48Zm0-61.14h-63.69v-45.45h63.69v45.45Zm0-61.11h-63.69v-36.14h30.49c18.31,0,33.2,12.69,33.2,28.3v7.84Z"/>
      <path class="cls-8" d="M424.77,344.44c-8.35-9.63-20.92-14.93-35.39-14.93H176.1c-72.52,0-74.06-43.23-74.09-45.05v-.28c-.03-1.09-2.62-109.95-.02-159.39,1.66-31.55-36.17-37.37-42.19-37.83-22.52-1.74-51.46,12.27-59.31,41.46-2.01,7.49,2.44,15.23,9.94,17.25,7.5,2.01,15.23-2.45,17.24-9.94,3.69-13.7,17.98-19.02,27.71-20.96,7.03-1.41,18.92,.58,18.5,8.55-2.68,50.96-.04,160.45-.01,161.58,.1,2.97,3.48,72.77,102.23,72.77h213.28c12.45,0,15.49,6.93,15.92,8.06-.43,7.29,4.74,13.68,12.07,14.72,.66,.1,1.34,.14,2,.14,6.95,0,12.94-5.2,13.92-12.09,1.09-7.66-2.09-16.65-8.52-24.06Z"/>
      <path class="cls-6" d="M424.77,344.44c-8.35-9.63-20.92-14.93-35.39-14.93h-129.42v28.15h129.42c12.45,0,15.49,6.93,15.92,8.06-.43,7.29,4.74,13.68,12.07,14.72,.66,.1,1.34,.14,2,.14,6.95,0,12.94-5.2,13.92-12.09,1.09-7.66-2.09-16.65-8.52-24.06Z"/>
      <circle class="cls-2" cx="151.27" cy="370.26" r="28.89"/>
      <circle class="cls-2" cx="352.18" cy="370.26" r="28.89"/>
      <path class="cls-7" d="M151.27,399.15c15.96,0,28.89-12.93,28.89-28.89s-12.93-28.89-28.89-28.89"/>
      <path class="cls-7" d="M352.18,399.15c15.96,0,28.89-12.93,28.89-28.89s-12.93-28.89-28.89-28.89"/>
    </g>
  </g>
</svg>