<?xml version="1.0" encoding="utf-8"?>
<!-- Generator: Adobe Illustrator 26.5.0, SVG Export Plug-In . SVG Version: 6.00 Build 0)  -->
<svg version="1.1" id="Layer_2_00000147919132561521870260000012790723482892563133_"
	 xmlns="http://www.w3.org/2000/svg" xmlns:xlink="http://www.w3.org/1999/xlink" x="0px" y="0px" viewBox="0 0 310.5 427.7"
	 style="enable-background:new 0 0 310.5 427.7;" xml:space="preserve">
<style type="text/css">
	.st0{fill:#DFFFFF;}
	.st1{fill:#C7F1FB;}
	.st2{fill:#E0D6C3;}
	.st3{fill:#EFEAE1;}
	.st4{fill:#4D4D4D;}
</style>
<g id="Iceberg_Bear">
	<g id="Iceberg">
		<path class="st0" d="M304.7,152.2c-77.1-38.9-221.8-38.9-298.9,0C2.2,154,0,157.6,0,161.6h0v10.8l60.4,161.1l29.9-79.6L141,427.7
			l52.8-180.5l21.9,22.4l94.9-97.1v-10.8C310.5,157.6,308.3,154,304.7,152.2z"/>
		<g>
			<polygon class="st1" points="60.4,333.5 120.8,172.4 60.4,172.4 			"/>
			<path class="st1" d="M304.7,152.2c-24.4-12.3-55.5-20.7-89.1-25.2l0,0c0,0,0,0,0,0c-1.1-0.2-4.6-0.1-9.8,0.4
				c-4.1,0.4-12.8,3.4-16.8,3.5c-6.7,0.2-13.4,0.3-20.1,0.4c-5.5,0.1-11.1,0.2-16.6,0.9c-7.9,0.9-15.7,2.8-23.5,4
				c-7.9,1.2-15.9,1.5-23.8,1.2L86,138h0c0.8,12.5,15,21,26.9,25c4.6,1.6,16.5,8.2,28.1,9.4v255.2l74.6-255.2v97.1l94.9-97.1v-10.8
				C310.5,157.6,308.3,154,304.7,152.2z"/>
		</g>
	</g>
</g>
<g id="Iceberg_Bear_00000036242227326167055360000006042678273730199981_">
	<g id="Polar_Bear">
		<path class="st2" d="M231.9,10c-1.2,8.2-19.4,29.8-23.7,40.4s-7.8,52.3-12.8,63s-2.4,27.8,2.7,29.8c5.1,1.9,12.8,4.8,9.2,10.2
			c-3.6,5.3-14.5,2.9-16.5,2.9c0,0,6.1,7.8-5.3,8c-11.4,0.2-20.9-1.7-25.3-3.9c-0.7-0.3-1.6-0.6-2.8-0.7c-5.4-0.8-15,0-16.7,0.3
			c-2.1,0.4-34.4-13.1-34.4-13.1s10.2-30.3,12.6-33.9c2.4-3.6,36.6-38.5,36.6-38.5s17.2-20.8,17.4-21.5s24.9-22,24.9-22L214,13.6
			l12.8-3.6L231.9,10L231.9,10z"/>
		<path class="st3" d="M231.9,10c0,2.7-24.7,23.6-28.5,35.7S179.1,68.2,176,80.3c-3,12.2-10.3,54.3,0,68.4c7.6,11.4,3,12.5,1.1,13.7
			c-1.9,1.1-22.4,1.9-23.6-11.4c-1.1-13.3,1.9-37.6-5.7-41.4c0,0,8.1,31.9-15.3,35.3c0,0,20.3,4.6,15.7,11s-29,6.1-33.6,4.6
			c-4.6-1.5-33.5-9.9-28.5-36.5c8.4-41.4,28.5-64.3,59.1-68.1c12.5-3.1,25.9-20.5,23.8-26.2s-2.1-11.4,3.6-11.4
			c5.7,0,18.6-16.3,38-13.7c7.6-0.3,12.8-5.7,14.8-3.4S231.9,10,231.9,10z"/>
		<path class="st4" d="M231.7,11.1c0.9-1.8,1.2-4,1-6s-1.4-4.1-3.2-4.8c-1.5-0.6-5.3,0.3-6.8,0.7c-0.1,0.7,0.4,5.5,5,8.6
			C229.1,10.5,230.7,10.8,231.7,11.1z"/>
		<ellipse transform="matrix(0.925 -0.3799 0.3799 0.925 10.5048 75.4563)" class="st4" cx="196.4" cy="11.1" rx="2.7" ry="2"/>
	</g>
</g>
</svg>
