<svg xmlns="http://www.w3.org/2000/svg" xmlns:xlink="http://www.w3.org/1999/xlink" id="Layer_1" x="0" y="0" version="1.1" viewBox="0 0 100 100" style="enable-background:new 0 0 100 100" xml:space="preserve"><style type="text/css">.st0{fill:#7bd0ff}.st1{fill:#f0f1f2}.st2{fill:#333}.st3{fill:#ffaa5c}.st4{fill:#ff9a4e}.st5{fill:#e6e6e6}</style><path d="M81.9,59.4c0,0.2-0.1,0.5-0.1,0.7C81.8,59.8,81.9,59.6,81.9,59.4z" class="st0"/><path d="M80,86.7c0,0,0,0.1,0,0.1C80,86.8,80,86.8,80,86.7z" class="st0"/><path d="M81.7,60.7c0,0.2-0.1,0.5-0.1,0.7C81.6,61.2,81.6,61,81.7,60.7z" class="st0"/><path d="M82.1,58.1c0,0.2-0.1,0.5-0.1,0.7C82,58.5,82.1,58.3,82.1,58.1z" class="st0"/><path d="M82.3,56.8c0,0.2-0.1,0.5-0.1,0.7C82.2,57.2,82.3,57,82.3,56.8z" class="st0"/><path d="M80.6,66.3c-0.1,0.2-0.1,0.5-0.2,0.7C80.5,66.8,80.5,66.6,80.6,66.3z" class="st0"/><path d="M80.9,64.9c-0.1,0.2-0.1,0.5-0.2,0.7C80.8,65.4,80.8,65.1,80.9,64.9z" class="st0"/><path d="M81.2,63.5c0,0.2-0.1,0.5-0.1,0.7C81.1,64,81.1,63.7,81.2,63.5z" class="st0"/><path d="M82.9,49.3c0,0.2,0,0.5,0,0.8C82.9,49.8,82.9,49.6,82.9,49.3z" class="st0"/><path d="M82.8,51.3c0,0.2,0,0.4,0,0.6C82.8,51.7,82.8,51.5,82.8,51.3z" class="st0"/><path d="M38.9,32.7L38.9,32.7c0.2,0,0.5,0,0.8,0C39.4,32.7,39.1,32.7,38.9,32.7z" class="st0"/><path d="M82.9,50.4c0,0.2,0,0.4,0,0.6C82.9,50.7,82.9,50.5,82.9,50.4z" class="st0"/><path d="M82.4,55.6c0,0.2-0.1,0.4-0.1,0.7C82.4,56,82.4,55.8,82.4,55.6z" class="st0"/><path d="M64.9,32.7c-0.3,0-0.5,0-0.8,0.1c0.4,0,0.9-0.1,1.3-0.1C65.3,32.7,65.1,32.7,64.9,32.7z" class="st0"/><path d="M82.8,52.3c0,0.2,0,0.4,0,0.5C82.7,52.7,82.8,52.5,82.8,52.3z" class="st0"/><path d="M82.6,54.4c0,0.2,0,0.4-0.1,0.6C82.5,54.8,82.6,54.6,82.6,54.4z" class="st0"/><path d="M82.7,53.3c0,0.2,0,0.4-0.1,0.6C82.7,53.7,82.7,53.5,82.7,53.3z" class="st0"/><path d="M81.4,62.1c0,0.2-0.1,0.5-0.1,0.7C81.3,62.6,81.4,62.3,81.4,62.1z" class="st0"/><path d="M79.7,85.4c-1.1-5.7-0.9-11.5,0.4-17.2c0-0.2,0.1-0.3,0.1-0.5c-0.1,0.3-0.2,0.7-0.2,1	C78.7,74.2,78.7,79.9,79.7,85.4z" class="st0"/><path d="M100,30c0-16.6-13.4-30-30-30H30C13.4,0,0,13.4,0,30v40c0,8.9,3.8,16.8,10,22.3L13.3,74	c1.1-5.9,1.2-11.9,0.6-17.9c-0.1-1.3-0.2-2.6-0.2-3.9c0-21.1,17.6-38.1,38.9-37.2C71.3,15.8,86.6,30.8,88,49.5	c0.2,2.5,0.1,5-0.2,7.3c-0.7,5.7-0.4,11.5,0.7,17.2l3.1,16.8c5.2-5.4,8.5-12.8,8.5-20.9V30z" class="st0"/><path d="M70,100c4.7,0,9.1-1.1,13-3l-2.6-9c-0.1-0.3-0.2-0.8-0.3-1.2c0,0,0-0.1,0-0.1c-0.1-0.3-0.1-0.5-0.2-0.8	l-0.1-0.6c-1.1-5.5-1.1-11.2,0.3-16.6c0.1-0.3,0.2-0.7,0.2-1c0.1-0.2,0.1-0.5,0.2-0.7c0.1-0.2,0.1-0.5,0.2-0.7	c0.1-0.2,0.1-0.5,0.2-0.7c0.1-0.2,0.1-0.5,0.2-0.7c0-0.2,0.1-0.4,0.1-0.7c0-0.2,0.1-0.5,0.1-0.7c0-0.2,0.1-0.5,0.1-0.7	c0-0.2,0.1-0.5,0.1-0.7c0-0.2,0.1-0.4,0.1-0.7c0-0.2,0.1-0.5,0.1-0.7c0-0.2,0.1-0.4,0.1-0.7c0-0.2,0.1-0.5,0.1-0.7	c0-0.2,0.1-0.4,0.1-0.6c0-0.2,0.1-0.5,0.1-0.7c0-0.2,0.1-0.4,0.1-0.6c0-0.2,0.1-0.5,0.1-0.7c0-0.2,0.1-0.4,0.1-0.6	c0-0.2,0.1-0.4,0.1-0.7c0-0.2,0-0.4,0.1-0.5c0-0.2,0-0.4,0.1-0.6c0-0.2,0-0.3,0.1-0.5c0-0.2,0-0.4,0.1-0.6c0-0.2,0-0.3,0-0.5	c0-0.2,0-0.4,0-0.5c0-0.2,0-0.3,0-0.5c0-0.2,0-0.4,0-0.6c0-0.1,0-0.2,0-0.4c0-0.2,0-0.4,0-0.6c0-0.1,0-0.2,0-0.3c0-0.3,0-0.5,0-0.8	c0-9.2-7.8-16.6-17.5-16.6c-0.4,0-0.9,0-1.3,0.1c-3.5,0.4-6.4,3.2-6.9,6.7c-0.1,0.6-0.1,1.2-0.2,1.8c-0.1,2.9,0.5,5.3,1.3,7.3	l3.9,3.9c0.8,0.8,0.5,2.2-0.5,2.6l-9.1,3.5c-0.4,0.1-0.8,0.1-1.1,0L42.4,55c-1.1-0.4-1.3-1.8-0.5-2.6l3.5-3.5c0-0.1,0-0.2,0.1-0.3	c0.8-2.1,1.5-4.8,1.3-8c0-0.4-0.1-0.9-0.1-1.3c-0.5-3.6-3.4-6.3-6.9-6.6c-0.3,0-0.5,0-0.8,0c-9.6,0-17.5,7.4-17.5,16.6	c0,2.4,0.7,6.3,1.9,10.8c1.8,7,1.8,14.5-0.3,21.4c-0.4,1.3-0.7,2.6-1,4c-0.2,0.8-0.3,1.7-0.6,2.5l-2.9,9.7C22.1,99.2,26,100,30,100	H70z M68.3,38c3.1,0,5.6,2.5,5.6,5.6c0,3.1-2.5,5.6-5.6,5.6c-3.1,0-5.6-2.5-5.6-5.6C62.8,40.5,65.2,38,68.3,38z M34.9,38	c3.1,0,5.6,2.5,5.6,5.6c0,3.1-2.5,5.6-5.6,5.6c-3.1,0-5.6-2.5-5.6-5.6C29.4,40.5,31.9,38,34.9,38z" class="st1"/><path d="M82.5,55.1c0,0.2,0,0.4-0.1,0.5C82.5,55.4,82.5,55.2,82.5,55.1z" class="st2"/><path d="M82.9,50.1c0,0.1,0,0.2,0,0.3C82.9,50.3,82.9,50.2,82.9,50.1z" class="st2"/><path d="M23,81.6c-0.4,1.3-0.7,2.6-1,4c-0.2,0.8-0.3,1.7-0.6,2.5c0.2-0.8,0.4-1.6,0.6-2.5C22.3,84.2,22.6,82.9,23,81.6z" class="st2"/><path d="M82.9,50.9c0,0.1,0,0.2,0,0.4C82.9,51.2,82.9,51.1,82.9,50.9z" class="st2"/><path d="M82.6,53.9c0,0.2,0,0.3-0.1,0.5C82.6,54.3,82.6,54.1,82.6,53.9z" class="st2"/><path d="M80.4,67.1c-0.1,0.2-0.1,0.5-0.2,0.7C80.3,67.5,80.4,67.3,80.4,67.1z" class="st2"/><path d="M82.8,51.9c0,0.1,0,0.3,0,0.5C82.8,52.2,82.8,52,82.8,51.9z" class="st2"/><path d="M82.7,52.9c0,0.2,0,0.3,0,0.5C82.7,53.2,82.7,53,82.7,52.9z" class="st2"/><path d="M82.4,56.2c0,0.2,0,0.4-0.1,0.6C82.3,56.6,82.3,56.4,82.4,56.2z" class="st2"/><path d="M81.3,62.8c0,0.2-0.1,0.4-0.1,0.7C81.2,63.3,81.3,63,81.3,62.8z" class="st2"/><path d="M81,64.2c0,0.2-0.1,0.4-0.1,0.7C80.9,64.7,81,64.4,81,64.2z" class="st2"/><path d="M82.2,57.5c0,0.2-0.1,0.4-0.1,0.6C82.1,57.9,82.2,57.7,82.2,57.5z" class="st2"/><path d="M81.6,61.4c0,0.2-0.1,0.4-0.1,0.7C81.5,61.9,81.5,61.7,81.6,61.4z" class="st2"/><path d="M80,86.7c-0.1-0.4-0.2-0.8-0.3-1.2c0,0,0-0.1,0-0.1l0.1,0.6C79.9,86.2,79.9,86.5,80,86.7z" class="st2"/><path d="M80.7,65.6c0,0.2-0.1,0.5-0.2,0.7C80.6,66.1,80.7,65.9,80.7,65.6z" class="st2"/><path d="M81.8,60.1c0,0.2-0.1,0.4-0.1,0.7C81.7,60.5,81.8,60.3,81.8,60.1z" class="st2"/><path d="M82,58.8c0,0.2-0.1,0.4-0.1,0.6C81.9,59.2,82,59,82,58.8z" class="st2"/><path d="M88.5,74c-1-5.7-1.4-11.5-0.7-17.2c0.3-2.4,0.4-4.8,0.2-7.3C86.6,30.8,71.3,15.8,52.5,15	c-21.3-0.9-38.9,16.1-38.9,37.2c0,1.3,0.1,2.6,0.2,3.9c0.6,6,0.5,12-0.6,17.9L10,92.3c2.5,2.3,5.4,4.1,8.6,5.4l2.9-9.7	c0.2-0.8,0.4-1.6,0.6-2.5c0.3-1.4,0.6-2.7,1-4c2.1-6.9,2.1-14.4,0.3-21.4c-1.2-4.5-1.9-8.4-1.9-10.8c0-9.2,7.8-16.6,17.5-16.6l0,0	c0.3,0,0.5,0,0.8,0c3.5,0.4,6.4,3.1,6.9,6.6c0.1,0.4,0.1,0.9,0.1,1.3c0.2,3.2-0.5,5.9-1.3,8c0,0.1,0,0.2-0.1,0.3l2-2	c2.6-2.6,6.8-2.6,9.5,0l1.6,1.6c-0.8-1.9-1.4-4.4-1.3-7.3c0-0.6,0.1-1.2,0.2-1.8c0.5-3.6,3.4-6.3,6.9-6.7c0.3,0,0.5-0.1,0.8-0.1	c0.2,0,0.4,0,0.6,0c9.6,0,17.5,7.4,17.5,16.6c0,0.2,0,0.5,0,0.8c0,0.1,0,0.2,0,0.3c0,0.2,0,0.4,0,0.6c0,0.1,0,0.2,0,0.4	c0,0.2,0,0.4,0,0.6c0,0.1,0,0.3,0,0.5c0,0.2,0,0.4,0,0.5c0,0.2,0,0.3,0,0.5c0,0.2,0,0.4-0.1,0.6c0,0.2,0,0.3-0.1,0.5	c0,0.2,0,0.4-0.1,0.6c0,0.2,0,0.4-0.1,0.5c0,0.2-0.1,0.4-0.1,0.7c0,0.2,0,0.4-0.1,0.6c0,0.2-0.1,0.5-0.1,0.7c0,0.2-0.1,0.4-0.1,0.6	c0,0.2-0.1,0.5-0.1,0.7c0,0.2-0.1,0.4-0.1,0.6c0,0.2-0.1,0.5-0.1,0.7c0,0.2-0.1,0.4-0.1,0.7c0,0.2-0.1,0.5-0.1,0.7	c0,0.2-0.1,0.4-0.1,0.7c0,0.2-0.1,0.5-0.1,0.7c0,0.2-0.1,0.4-0.1,0.7c0,0.2-0.1,0.5-0.1,0.7c0,0.2-0.1,0.4-0.1,0.7	c-0.1,0.2-0.1,0.5-0.2,0.7c0,0.2-0.1,0.5-0.2,0.7c-0.1,0.2-0.1,0.5-0.2,0.7c-0.1,0.2-0.1,0.5-0.2,0.7c0,0.2-0.1,0.3-0.1,0.5	c-1.3,5.6-1.5,11.5-0.4,17.2c0,0,0,0.1,0,0.1c0.1,0.4,0.2,0.8,0.3,1.2c0,0,0,0.1,0,0.1c0.1,0.4,0.2,0.8,0.3,1.2l2.6,9	c3.2-1.5,6.1-3.7,8.6-6.2L88.5,74z" class="st2"/><path d="M80,86.8c0.1,0.4,0.2,0.9,0.3,1.2C80.2,87.7,80.1,87.3,80,86.8z" class="st2"/><path d="M57.1,50.8H46.8c-1,0-1.7-0.9-1.5-1.8l-3.5,3.5c-0.8,0.8-0.5,2.2,0.5,2.6h19.3c1.1-0.4,1.3-1.8,0.5-2.6	l-3.9-3.9c0,0.1,0.1,0.1,0.1,0.2C58.9,49.7,58.1,50.8,57.1,50.8z" class="st3"/><path d="M47.4,47l-2,2c-0.2,0.9,0.5,1.8,1.5,1.8h10.3c1.1,0,1.8-1.1,1.4-2.1c0-0.1-0.1-0.1-0.1-0.2L56.8,47	C54.2,44.3,50,44.3,47.4,47z" class="st3"/><path d="M51.5,58.5c0.4,0.1,0.8,0.1,1.1,0l9.1-3.5H42.4L51.5,58.5z" class="st4"/><path d="M34.9,49.1c3.1,0,5.6-2.5,5.6-5.6c0-3.1-2.5-5.6-5.6-5.6c-3.1,0-5.6,2.5-5.6,5.6C29.4,46.7,31.9,49.1,34.9,49.1	z M33.9,39.9c1.1,0,2,0.9,2,2s-0.9,2-2,2s-2-0.9-2-2S32.8,39.9,33.9,39.9z" class="st2"/><path d="M68.3,49.1c3.1,0,5.6-2.5,5.6-5.6c0-3.1-2.5-5.6-5.6-5.6c-3.1,0-5.6,2.5-5.6,5.6C62.8,46.7,65.2,49.1,68.3,49.1	z M67.4,39.6c1.1,0,2,0.9,2,2s-0.9,2-2,2s-2-0.9-2-2S66.3,39.6,67.4,39.6z" class="st2"/><circle cx="33.9" cy="41.9" r="2" class="st5"/><circle cx="67.4" cy="41.6" r="2" class="st5"/></svg>