<svg xmlns="http://www.w3.org/2000/svg" width="35" height="35" fill="none" viewBox="0 0 35 35"><g id="edit"><g id="vuesax/outline/edit"><g id="edit_2"><path id="Vector" fill="#4D4D4D" stroke="#4D4D4D" d="M13.125 33.6771H21.875C25.8918 33.6771 28.8773 32.8209 30.8491 30.8491C32.821 28.8773 33.6771 25.8918 33.6771 21.875V18.9583C33.6771 18.0843 32.9574 17.3646 32.0834 17.3646C31.2093 17.3646 30.4896 18.0843 30.4896 18.9583V21.875C30.4896 25.2012 29.8928 27.3069 28.5999 28.5998C27.3069 29.8927 25.2012 30.4896 21.875 30.4896H13.125C9.79884 30.4896 7.69309 29.8927 6.40019 28.5998C5.10728 27.3069 4.51044 25.2012 4.51044 21.875V13.125C4.51044 9.79882 5.10728 7.69307 6.40019 6.40017C7.69309 5.10726 9.79884 4.51042 13.125 4.51042H16.0417C16.9157 4.51042 17.6354 3.79073 17.6354 2.91667C17.6354 2.04261 16.9157 1.32292 16.0417 1.32292H13.125C9.10825 1.32292 6.1227 2.17907 4.15089 4.15087C2.17909 6.12268 1.32294 9.10823 1.32294 13.125V21.875C1.32294 25.8918 2.17909 28.8773 4.15089 30.8491C6.1227 32.8209 9.10825 33.6771 13.125 33.6771Z"/><path id="Vector_2" fill="#4D4D4D" stroke="#4D4D4D" d="M9.7381 25.2473L9.73807 25.2473L9.74249 25.2516C10.4401 25.9323 11.3849 26.2979 12.3958 26.2979L12.4116 26.2979C12.5734 26.298 12.8023 26.2981 13.04 26.2464L17.4079 25.6224C17.4083 25.6223 17.4088 25.6223 17.4092 25.6222C18.3656 25.4899 19.5579 24.8846 20.2306 24.2119L31.7203 12.7222C31.7207 12.7218 31.721 12.7215 31.7214 12.7211C33.099 11.3583 33.878 9.97357 34.0246 8.50809L34.0246 8.50809L34.0251 8.5032C34.1885 6.68843 33.3767 4.93209 31.7223 3.2777C30.2154 1.77082 28.6337 0.954689 26.9937 0.954689C25.3537 0.954689 23.7721 1.77082 22.2652 3.2777L10.7735 14.7694C10.1008 15.4421 9.49548 16.6345 9.36318 17.5909C9.36312 17.5913 9.36306 17.5917 9.36301 17.5921L8.73653 21.9774C8.73648 21.9778 8.73643 21.9781 8.73639 21.9784C8.55644 23.2071 8.89775 24.407 9.7381 25.2473ZM17.9631 21.9589L17.963 21.9588L17.9537 21.9686C17.8816 22.0447 17.7126 22.1631 17.4878 22.2754C17.2673 22.3857 17.0623 22.4557 16.9449 22.4742C16.9441 22.4743 16.9434 22.4745 16.9427 22.4746L12.5608 23.1005C12.5605 23.1006 12.5601 23.1006 12.5597 23.1007C12.2296 23.146 12.0607 23.064 11.991 22.9944C11.9214 22.9247 11.8394 22.7558 11.8847 22.4257C11.8848 22.4253 11.8848 22.4249 11.8849 22.4246L12.5108 18.0427C12.511 18.042 12.5111 18.0412 12.5112 18.0405C12.5295 17.9244 12.5988 17.7238 12.7093 17.5044C12.8206 17.2835 12.9417 17.107 13.0265 17.0223L24.5166 5.53215C24.5169 5.5319 24.5171 5.53164 24.5174 5.53139C25.3551 4.70094 26.0752 4.22513 26.7974 4.15829C27.4913 4.09407 28.3369 4.39852 29.4537 5.51495C30.5238 6.59949 30.8942 7.4662 30.8271 8.19363C30.7701 8.80828 30.3721 9.54996 29.4548 10.4673L17.9631 21.9589Z"/><path id="Vector_3" fill="#4D4D4D" stroke="#4D4D4D" d="M20.2116 6.46174L20.2116 6.46175L20.2124 6.46459C21.3378 10.4643 24.5124 13.6413 28.5108 14.7702C28.6541 14.8161 28.806 14.8354 28.9479 14.8354C29.642 14.8354 30.2873 14.3899 30.4807 13.6635C30.7101 12.8242 30.2305 11.932 29.3738 11.6954C26.4362 10.8674 24.1034 8.53461 23.2754 5.59699C23.0402 4.7452 22.1653 4.25822 21.3195 4.49081L21.3195 4.49068L21.3084 4.494C20.4691 4.74578 19.978 5.61221 20.2116 6.46174Z"/></g></g></g></svg>