<svg width="35" height="35" viewBox="0 0 35 35" fill="none" xmlns="http://www.w3.org/2000/svg">
<g id="message-question">
<g id="vuesax/outline/message-question">
<g id="message-question_2">
<path id="Vector" d="M13.3552 32.5453L13.3552 32.5453L13.3586 32.5431L19.4451 28.4852H24.7917C27.4146 28.4852 29.6441 27.6024 31.2192 26.0273C32.7943 24.4523 33.6771 22.2227 33.6771 19.5998V10.8499C33.6771 8.22705 32.7943 5.99749 31.2192 4.42241C29.6441 2.84732 27.4146 1.9645 24.7917 1.9645H10.2084C7.58548 1.9645 5.35593 2.84732 3.78084 4.42241C2.20575 5.99749 1.32294 8.22705 1.32294 10.8499V19.5998C1.32294 22.0242 2.07915 24.1151 3.44189 25.6633C4.71624 27.1111 6.49707 28.057 8.6146 28.3685V29.9978C8.6146 31.11 9.22181 32.158 10.2213 32.685C10.674 32.9283 11.1778 33.0498 11.6667 33.0498C12.2593 33.0498 12.8505 32.876 13.3552 32.5453ZM4.51044 10.8353C4.51044 9.06396 5.08154 7.64945 6.05201 6.67898C7.02248 5.70851 8.437 5.1374 10.2084 5.1374H24.8063C26.5776 5.1374 27.9922 5.70851 28.9626 6.67898C29.9331 7.64945 30.5042 9.06396 30.5042 10.8353V19.5854C30.5042 21.3568 29.9331 22.7713 28.9626 23.7418C27.9922 24.7122 26.5776 25.2833 24.8063 25.2833H18.9729C18.6474 25.2833 18.3332 25.3902 18.0831 25.5569L11.8021 29.7348V26.8771C11.8021 26.003 11.0824 25.2833 10.2084 25.2833C8.437 25.2833 7.02248 24.7122 6.05201 23.7418C5.08154 22.7713 4.51044 21.3568 4.51044 19.5854V10.8353ZM11.6842 29.9833L11.6802 29.9899L11.6842 29.9833ZM11.7489 29.8754C11.7434 29.8721 11.7431 29.8714 11.7459 29.8736C11.7469 29.8742 11.7479 29.8748 11.7489 29.8754Z" fill="#4D4D4D" stroke="#4D4D4D"/>
<path id="Vector_2" d="M17.4997 17.6604C16.9018 17.6604 16.406 17.1646 16.406 16.5666V16.2604C16.406 14.5688 17.6455 13.7375 18.1122 13.4167C18.6518 13.0521 18.8268 12.8042 18.8268 12.425C18.8268 11.6959 18.2289 11.0979 17.4997 11.0979C16.7705 11.0979 16.1727 11.6959 16.1727 12.425C16.1727 13.0229 15.6768 13.5188 15.0789 13.5188C14.481 13.5188 13.9852 13.0229 13.9852 12.425C13.9852 10.4854 15.5601 8.91039 17.4997 8.91039C19.4393 8.91039 21.0143 10.4854 21.0143 12.425C21.0143 14.0875 19.7893 14.9188 19.3372 15.225C18.7685 15.6042 18.5935 15.8521 18.5935 16.2604V16.5666C18.5935 17.1791 18.0976 17.6604 17.4997 17.6604Z" fill="#4D4D4D"/>
<path id="Vector_3" d="M15.9062 20.1979C15.9062 21.0676 16.607 21.7916 17.5 21.7916C18.393 21.7916 19.0938 21.0676 19.0938 20.1979C19.0938 19.3238 18.3741 18.6041 17.5 18.6041C16.6259 18.6041 15.9062 19.3238 15.9062 20.1979Z" fill="#4D4D4D" stroke="#4D4D4D"/>
</g>
</g>
</g>
</svg>
